<?xml version="1.0" encoding="UTF-8" standalone="no"?>
<!DOCTYPE svg PUBLIC "-//W3C//DTD SVG 1.1//EN"
 "http://www.w3.org/Graphics/SVG/1.1/DTD/svg11.dtd">
<!-- Generated by graphviz version 2.43.0 (0)
 -->
<!-- Title: SmartScraperFlow Pages: 1 -->
<svg width="1630pt" height="2561pt"
 viewBox="0.00 0.00 1629.50 2561.00" xmlns="http://www.w3.org/2000/svg" xmlns:xlink="http://www.w3.org/1999/xlink">
<g id="graph0" class="graph" transform="scale(1 1) rotate(0) translate(4 2557)">
<title>SmartScraperFlow</title>
<polygon fill="white" stroke="transparent" points="-4,4 -4,-2557 1625.5,-2557 1625.5,4 -4,4"/>
<!-- Start -->
<g id="node1" class="node">
<title>Start</title>
<ellipse fill="lightgreen" stroke="black" cx="423.5" cy="-2535" rx="32.49" ry="18"/>
<text text-anchor="middle" x="423.5" y="-2531.3" font-family="Helvetica,sans-Serif" font-size="14.00">Start</text>
</g>
<!-- InputURL -->
<g id="node4" class="node">
<title>InputURL</title>
<path fill="lightblue" stroke="black" d="M565.5,-2480C565.5,-2480 281.5,-2480 281.5,-2480 275.5,-2480 269.5,-2474 269.5,-2468 269.5,-2468 269.5,-2456 269.5,-2456 269.5,-2450 275.5,-2444 281.5,-2444 281.5,-2444 565.5,-2444 565.5,-2444 571.5,-2444 577.5,-2450 577.5,-2456 577.5,-2456 577.5,-2468 577.5,-2468 577.5,-2474 571.5,-2480 565.5,-2480"/>
<text text-anchor="middle" x="423.5" y="-2458.3" font-family="Helvetica,sans-Serif" font-size="14.00">Input: URL, Proxy (optional), UA (optional)</text>
</g>
<!-- Start&#45;&gt;InputURL -->
<g id="edge1" class="edge">
<title>Start&#45;&gt;InputURL</title>
<path fill="none" stroke="black" d="M423.5,-2516.81C423.5,-2508.79 423.5,-2499.05 423.5,-2490.07"/>
<polygon fill="black" stroke="black" points="427,-2490.03 423.5,-2480.03 420,-2490.03 427,-2490.03"/>
</g>
<!-- EndSuccess -->
<g id="node2" class="node">
<title>EndSuccess</title>
<ellipse fill="lightgreen" stroke="black" cx="376.5" cy="-18" rx="64.19" ry="18"/>
<text text-anchor="middle" x="376.5" y="-14.3" font-family="Helvetica,sans-Serif" font-size="14.00">Return Data</text>
</g>
<!-- EndError -->
<g id="node3" class="node">
<title>EndError</title>
<ellipse fill="salmon" stroke="black" cx="1006.5" cy="-18" rx="65.79" ry="18"/>
<text text-anchor="middle" x="1006.5" y="-14.3" font-family="Helvetica,sans-Serif" font-size="14.00">Return Error</text>
</g>
<!-- CheckKnownSite -->
<g id="node5" class="node">
<title>CheckKnownSite</title>
<path fill="lightblue" stroke="black" d="M513,-2407C513,-2407 334,-2407 334,-2407 328,-2407 322,-2401 322,-2395 322,-2395 322,-2381 322,-2381 322,-2375 328,-2369 334,-2369 334,-2369 513,-2369 513,-2369 519,-2369 525,-2375 525,-2381 525,-2381 525,-2395 525,-2395 525,-2401 519,-2407 513,-2407"/>
<text text-anchor="middle" x="423.5" y="-2391.8" font-family="Helvetica,sans-Serif" font-size="14.00">Known Site Check</text>
<text text-anchor="middle" x="423.5" y="-2376.8" font-family="Helvetica,sans-Serif" font-size="14.00">(KnownSitesTableManager)</text>
</g>
<!-- InputURL&#45;&gt;CheckKnownSite -->
<g id="edge2" class="edge">
<title>InputURL&#45;&gt;CheckKnownSite</title>
<path fill="none" stroke="black" d="M423.5,-2443.94C423.5,-2435.99 423.5,-2426.31 423.5,-2417.31"/>
<polygon fill="black" stroke="black" points="427,-2417.2 423.5,-2407.2 420,-2417.2 427,-2417.2"/>
</g>
<!-- IsConfigValid -->
<g id="node6" class="node">
<title>IsConfigValid</title>
<path fill="lightyellow" stroke="black" d="M419,-2318C419,-2318 270,-2318 270,-2318 264,-2318 258,-2312 258,-2306 258,-2306 258,-2294 258,-2294 258,-2288 264,-2282 270,-2282 270,-2282 419,-2282 419,-2282 425,-2282 431,-2288 431,-2294 431,-2294 431,-2306 431,-2306 431,-2312 425,-2318 419,-2318"/>
<text text-anchor="middle" x="344.5" y="-2296.3" font-family="Helvetica,sans-Serif" font-size="14.00">Attempt Known Config</text>
</g>
<!-- CheckKnownSite&#45;&gt;IsConfigValid -->
<g id="edge3" class="edge">
<title>CheckKnownSite&#45;&gt;IsConfigValid</title>
<path fill="none" stroke="black" d="M394.03,-2368.91C386.81,-2363.68 379.46,-2357.58 373.5,-2351 367.2,-2344.05 361.64,-2335.51 357.11,-2327.47"/>
<polygon fill="black" stroke="black" points="360.07,-2325.58 352.29,-2318.39 353.89,-2328.86 360.07,-2325.58"/>
<text text-anchor="middle" x="420" y="-2339.8" font-family="Helvetica,sans-Serif" font-size="14.00">Config Found</text>
</g>
<!-- DiscoveryProcess -->
<g id="node8" class="node">
<title>DiscoveryProcess</title>
<path fill="lightgoldenrodyellow" stroke="black" d="M91.5,-1869.5C91.5,-1869.5 869.5,-1869.5 869.5,-1869.5 875.5,-1869.5 881.5,-1875.5 881.5,-1881.5 881.5,-1881.5 881.5,-2033.5 881.5,-2033.5 881.5,-2039.5 875.5,-2045.5 869.5,-2045.5 869.5,-2045.5 91.5,-2045.5 91.5,-2045.5 85.5,-2045.5 79.5,-2039.5 79.5,-2033.5 79.5,-2033.5 79.5,-1881.5 79.5,-1881.5 79.5,-1875.5 85.5,-1869.5 91.5,-1869.5"/>
<text text-anchor="middle" x="480.5" y="-2030.3" font-family="Helvetica,sans-Serif" font-size="14.00">Discovery Sub&#45;system</text>
<polyline fill="none" stroke="black" points="79.5,-2022.5 881.5,-2022.5 "/>
<text text-anchor="middle" x="480.5" y="-2007.3" font-family="Helvetica,sans-Serif" font-size="14.00">C.1 Initial Probing (cURL, Puppeteer&#45;Stealth)</text>
<polyline fill="none" stroke="black" points="79.5,-1999.5 881.5,-1999.5 "/>
<text text-anchor="middle" x="480.5" y="-1984.3" font-family="Helvetica,sans-Serif" font-size="14.00">Detect CAPTCHA (HtmlAnalyser &#45; now HtmlAnalyserFixed)</text>
<polyline fill="none" stroke="black" points="79.5,-1976.5 881.5,-1976.5 "/>
<text text-anchor="middle" x="480.5" y="-1961.3" font-family="Helvetica,sans-Serif" font-size="14.00">Compare DOMs (DomComparator)</text>
<polyline fill="none" stroke="black" points="79.5,-1953.5 881.5,-1953.5 "/>
<text text-anchor="middle" x="480.5" y="-1938.3" font-family="Helvetica,sans-Serif" font-size="14.00">C.2 Page Prep for XPath Discovery (Puppeteer Interactions)</text>
<polyline fill="none" stroke="black" points="79.5,-1930.5 881.5,-1930.5 "/>
<text text-anchor="middle" x="480.5" y="-1915.3" font-family="Helvetica,sans-Serif" font-size="14.00">C.3 DOM Structure Extraction (HtmlAnalyser &#45; Planned) &amp; XPath Discovery (LLMInterface, ContentScoringEngine)</text>
<polyline fill="none" stroke="black" points="79.5,-1907.5 881.5,-1907.5 "/>
<text text-anchor="middle" x="480.5" y="-1892.3" font-family="Helvetica,sans-Serif" font-size="14.00">C.4 Outcome of Discovery</text>
<text text-anchor="middle" x="480.5" y="-1877.3" font-family="Helvetica,sans-Serif" font-size="14.00">Store New Config (KnownSitesTableManager)</text>
</g>
<!-- CheckKnownSite&#45;&gt;DiscoveryProcess -->
<g id="edge4" class="edge">
<title>CheckKnownSite&#45;&gt;DiscoveryProcess</title>
<path fill="none" stroke="black" d="M450.54,-2368.63C456.49,-2363.51 462.27,-2357.54 466.5,-2351 479.02,-2331.61 480.5,-2324.08 480.5,-2301 480.5,-2301 480.5,-2301 480.5,-2138 480.5,-2111.33 480.5,-2082.44 480.5,-2055.79"/>
<polygon fill="black" stroke="black" points="484,-2055.69 480.5,-2045.69 477,-2055.69 484,-2055.69"/>
<text text-anchor="middle" x="529" y="-2223.3" font-family="Helvetica,sans-Serif" font-size="14.00">Unknown Site</text>
</g>
<!-- KnownConfigWorks -->
<g id="node7" class="node">
<title>KnownConfigWorks</title>
<path fill="lightyellow" stroke="black" d="M270.57,-2243.67C270.57,-2243.67 132.88,-2228.33 132.88,-2228.33 126.92,-2227.66 126.92,-2226.34 132.88,-2225.67 132.88,-2225.67 270.57,-2210.33 270.57,-2210.33 276.54,-2209.66 288.46,-2209.66 294.43,-2210.33 294.43,-2210.33 432.12,-2225.67 432.12,-2225.67 438.08,-2226.34 438.08,-2227.66 432.12,-2228.33 432.12,-2228.33 294.43,-2243.67 294.43,-2243.67 288.46,-2244.34 276.54,-2244.34 270.57,-2243.67"/>
<text text-anchor="middle" x="282.5" y="-2223.3" font-family="Helvetica,sans-Serif" font-size="14.00">Known Config Worked?</text>
</g>
<!-- IsConfigValid&#45;&gt;KnownConfigWorks -->
<g id="edge5" class="edge">
<title>IsConfigValid&#45;&gt;KnownConfigWorks</title>
<path fill="none" stroke="black" d="M329.49,-2281.81C321.46,-2272.62 311.46,-2261.16 302.75,-2251.19"/>
<polygon fill="black" stroke="black" points="305.32,-2248.81 296.1,-2243.58 300.04,-2253.41 305.32,-2248.81"/>
</g>
<!-- UpdateSuccessStats -->
<g id="node27" class="node">
<title>UpdateSuccessStats</title>
<path fill="lightblue" stroke="black" d="M191,-2102C191,-2102 12,-2102 12,-2102 6,-2102 0,-2096 0,-2090 0,-2090 0,-2076 0,-2076 0,-2070 6,-2064 12,-2064 12,-2064 191,-2064 191,-2064 197,-2064 203,-2070 203,-2076 203,-2076 203,-2090 203,-2090 203,-2096 197,-2102 191,-2102"/>
<text text-anchor="middle" x="101.5" y="-2086.8" font-family="Helvetica,sans-Serif" font-size="14.00">Update Success Stats</text>
<text text-anchor="middle" x="101.5" y="-2071.8" font-family="Helvetica,sans-Serif" font-size="14.00">(KnownSitesTableManager)</text>
</g>
<!-- KnownConfigWorks&#45;&gt;UpdateSuccessStats -->
<g id="edge6" class="edge">
<title>KnownConfigWorks&#45;&gt;UpdateSuccessStats</title>
<path fill="none" stroke="black" d="M263.13,-2210.89C245.49,-2197.13 218.73,-2176.22 195.5,-2158 174.53,-2141.55 150.96,-2122.99 132.66,-2108.58"/>
<polygon fill="black" stroke="black" points="134.68,-2105.71 124.66,-2102.27 130.35,-2111.21 134.68,-2105.71"/>
<text text-anchor="middle" x="248" y="-2179.8" font-family="Helvetica,sans-Serif" font-size="14.00">Yes</text>
</g>
<!-- IncrementFailureAndRediscover -->
<g id="node28" class="node">
<title>IncrementFailureAndRediscover</title>
<path fill="lightblue" stroke="black" d="M396,-2158C396,-2158 217,-2158 217,-2158 211,-2158 205,-2152 205,-2146 205,-2146 205,-2132 205,-2132 205,-2126 211,-2120 217,-2120 217,-2120 396,-2120 396,-2120 402,-2120 408,-2126 408,-2132 408,-2132 408,-2146 408,-2146 408,-2152 402,-2158 396,-2158"/>
<text text-anchor="middle" x="306.5" y="-2142.8" font-family="Helvetica,sans-Serif" font-size="14.00">Increment Failure Count</text>
<text text-anchor="middle" x="306.5" y="-2127.8" font-family="Helvetica,sans-Serif" font-size="14.00">(KnownSitesTableManager)</text>
</g>
<!-- KnownConfigWorks&#45;&gt;IncrementFailureAndRediscover -->
<g id="edge7" class="edge">
<title>KnownConfigWorks&#45;&gt;IncrementFailureAndRediscover</title>
<path fill="none" stroke="black" d="M287.13,-2209.42C290.41,-2197.67 294.88,-2181.63 298.71,-2167.93"/>
<polygon fill="black" stroke="black" points="302.16,-2168.59 301.47,-2158.02 295.41,-2166.71 302.16,-2168.59"/>
<text text-anchor="middle" x="358.5" y="-2179.8" font-family="Helvetica,sans-Serif" font-size="14.00">No (Config Failed)</text>
</g>
<!-- InitialProbeCurl -->
<g id="node9" class="node">
<title>InitialProbeCurl</title>
<path fill="lightblue" stroke="black" d="M524.5,-1832C524.5,-1832 436.5,-1832 436.5,-1832 430.5,-1832 424.5,-1826 424.5,-1820 424.5,-1820 424.5,-1806 424.5,-1806 424.5,-1800 430.5,-1794 436.5,-1794 436.5,-1794 524.5,-1794 524.5,-1794 530.5,-1794 536.5,-1800 536.5,-1806 536.5,-1806 536.5,-1820 536.5,-1820 536.5,-1826 530.5,-1832 524.5,-1832"/>
<text text-anchor="middle" x="480.5" y="-1816.8" font-family="Helvetica,sans-Serif" font-size="14.00">Attempt cURL</text>
<text text-anchor="middle" x="480.5" y="-1801.8" font-family="Helvetica,sans-Serif" font-size="14.00">(CurlHandler)</text>
</g>
<!-- DiscoveryProcess&#45;&gt;InitialProbeCurl -->
<g id="edge11" class="edge">
<title>DiscoveryProcess&#45;&gt;InitialProbeCurl</title>
<path fill="none" stroke="black" d="M480.5,-1869.09C480.5,-1859.59 480.5,-1850.49 480.5,-1842.52"/>
<polygon fill="black" stroke="black" points="484,-1842.42 480.5,-1832.42 477,-1842.42 484,-1842.42"/>
</g>
<!-- SaveHtmlFailure -->
<g id="node26" class="node">
<title>SaveHtmlFailure</title>
<polygon fill="lightgrey" stroke="black" points="1077,-125 930,-125 930,-87 1083,-87 1083,-119 1077,-125"/>
<polyline fill="none" stroke="black" points="1077,-125 1077,-119 "/>
<polyline fill="none" stroke="black" points="1083,-119 1077,-119 "/>
<text text-anchor="middle" x="1006.5" y="-109.8" font-family="Helvetica,sans-Serif" font-size="14.00">Save HTML (Failure)</text>
<text text-anchor="middle" x="1006.5" y="-94.8" font-family="Helvetica,sans-Serif" font-size="14.00">(if DEBUG=true)</text>
</g>
<!-- DiscoveryProcess&#45;&gt;SaveHtmlFailure -->
<g id="edge40" class="edge">
<title>DiscoveryProcess&#45;&gt;SaveHtmlFailure</title>
<path fill="none" stroke="black" d="M881.65,-1930.34C1133.36,-1908.29 1410.5,-1871.07 1410.5,-1814 1410.5,-1814 1410.5,-1814 1410.5,-193 1410.5,-128.72 1212.37,-112.29 1093.62,-108.22"/>
<polygon fill="black" stroke="black" points="1093.55,-104.72 1083.44,-107.9 1093.32,-111.72 1093.55,-104.72"/>
<text text-anchor="middle" x="1516" y="-1014.3" font-family="Helvetica,sans-Serif" font-size="14.00">Critical Error During Discovery</text>
</g>
<!-- CurlResponse -->
<g id="node10" class="node">
<title>CurlResponse</title>
<path fill="lightblue" stroke="black" d="M553,-1757C553,-1757 408,-1757 408,-1757 402,-1757 396,-1751 396,-1745 396,-1745 396,-1733 396,-1733 396,-1727 402,-1721 408,-1721 408,-1721 553,-1721 553,-1721 559,-1721 565,-1727 565,-1733 565,-1733 565,-1745 565,-1745 565,-1751 559,-1757 553,-1757"/>
<text text-anchor="middle" x="480.5" y="-1735.3" font-family="Helvetica,sans-Serif" font-size="14.00">cURL HTML Received?</text>
</g>
<!-- InitialProbeCurl&#45;&gt;CurlResponse -->
<g id="edge12" class="edge">
<title>InitialProbeCurl&#45;&gt;CurlResponse</title>
<path fill="none" stroke="black" d="M480.5,-1793.83C480.5,-1785.89 480.5,-1776.41 480.5,-1767.63"/>
<polygon fill="black" stroke="black" points="484,-1767.42 480.5,-1757.42 477,-1767.42 484,-1767.42"/>
</g>
<!-- CheckCaptchaCurl -->
<g id="node11" class="node">
<title>CheckCaptchaCurl</title>
<path fill="lightyellow" stroke="black" d="M250.74,-1667.63C250.74,-1667.63 85.26,-1634.37 85.26,-1634.37 79.38,-1633.18 79.38,-1630.82 85.26,-1629.63 85.26,-1629.63 250.74,-1596.37 250.74,-1596.37 256.62,-1595.18 268.38,-1595.18 274.26,-1596.37 274.26,-1596.37 439.74,-1629.63 439.74,-1629.63 445.62,-1630.82 445.62,-1633.18 439.74,-1634.37 439.74,-1634.37 274.26,-1667.63 274.26,-1667.63 268.38,-1668.82 256.62,-1668.82 250.74,-1667.63"/>
<text text-anchor="middle" x="262.5" y="-1635.8" font-family="Helvetica,sans-Serif" font-size="14.00">CAPTCHA in cURL HTML?</text>
<text text-anchor="middle" x="262.5" y="-1620.8" font-family="Helvetica,sans-Serif" font-size="14.00">(HtmlAnalyser)</text>
</g>
<!-- CurlResponse&#45;&gt;CheckCaptchaCurl -->
<g id="edge13" class="edge">
<title>CurlResponse&#45;&gt;CheckCaptchaCurl</title>
<path fill="none" stroke="black" d="M444.99,-1720.9C412.82,-1705.4 364.67,-1682.21 325.9,-1663.54"/>
<polygon fill="black" stroke="black" points="327.3,-1660.33 316.77,-1659.14 324.26,-1666.63 327.3,-1660.33"/>
<text text-anchor="middle" x="432" y="-1691.8" font-family="Helvetica,sans-Serif" font-size="14.00">Success</text>
</g>
<!-- InitialProbePuppeteer -->
<g id="node12" class="node">
<title>InitialProbePuppeteer</title>
<path fill="lightblue" stroke="black" d="M630,-1543C630,-1543 203,-1543 203,-1543 197,-1543 191,-1537 191,-1531 191,-1531 191,-1517 191,-1517 191,-1511 197,-1505 203,-1505 203,-1505 630,-1505 630,-1505 636,-1505 642,-1511 642,-1517 642,-1517 642,-1531 642,-1531 642,-1537 636,-1543 630,-1543"/>
<text text-anchor="middle" x="416.5" y="-1527.8" font-family="Helvetica,sans-Serif" font-size="14.00">Attempt Puppeteer&#45;Stealth</text>
<text text-anchor="middle" x="416.5" y="-1512.8" font-family="Helvetica,sans-Serif" font-size="14.00">(PuppeteerController, PluginManager from EXTENSION_PATHS)</text>
</g>
<!-- CurlResponse&#45;&gt;InitialProbePuppeteer -->
<g id="edge14" class="edge">
<title>CurlResponse&#45;&gt;InitialProbePuppeteer</title>
<path fill="none" stroke="black" d="M481.79,-1720.99C483.53,-1688.03 483.65,-1614.05 455.5,-1561 453.51,-1557.25 450.97,-1553.68 448.14,-1550.35"/>
<polygon fill="black" stroke="black" points="450.59,-1547.84 441.15,-1543.04 445.53,-1552.68 450.59,-1547.84"/>
<text text-anchor="middle" x="613.5" y="-1628.3" font-family="Helvetica,sans-Serif" font-size="14.00">Fail (or proceed to Puppeteer anyway)</text>
</g>
<!-- CheckCaptchaCurl&#45;&gt;InitialProbePuppeteer -->
<g id="edge15" class="edge">
<title>CheckCaptchaCurl&#45;&gt;InitialProbePuppeteer</title>
<path fill="none" stroke="black" d="M304.17,-1602.31C328.5,-1585.57 358.84,-1564.69 381.85,-1548.85"/>
<polygon fill="black" stroke="black" points="384.03,-1551.6 390.28,-1543.05 380.06,-1545.83 384.03,-1551.6"/>
<text text-anchor="middle" x="407" y="-1564.8" font-family="Helvetica,sans-Serif" font-size="14.00">No CAPTCHA</text>
</g>
<!-- CaptchaHandling -->
<g id="node23" class="node">
<title>CaptchaHandling</title>
<path fill="lightblue" stroke="black" d="M671,-388C671,-388 442,-388 442,-388 436,-388 430,-382 430,-376 430,-376 430,-362 430,-362 430,-356 436,-350 442,-350 442,-350 671,-350 671,-350 677,-350 683,-356 683,-362 683,-362 683,-376 683,-376 683,-382 677,-388 671,-388"/>
<text text-anchor="middle" x="556.5" y="-372.8" font-family="Helvetica,sans-Serif" font-size="14.00">CAPTCHA Handling</text>
<text text-anchor="middle" x="556.5" y="-357.8" font-family="Helvetica,sans-Serif" font-size="14.00">(CaptchaSolver, DataDomeSolver)</text>
</g>
<!-- CheckCaptchaCurl&#45;&gt;CaptchaHandling -->
<g id="edge16" class="edge">
<title>CheckCaptchaCurl&#45;&gt;CaptchaHandling</title>
<path fill="none" stroke="black" d="M176.25,-1611.26C133.75,-1595.9 91.5,-1569.45 91.5,-1525 91.5,-1525 91.5,-1525 91.5,-507.5 91.5,-438.46 282.38,-401.44 419.55,-383.76"/>
<polygon fill="black" stroke="black" points="420.26,-387.2 429.74,-382.47 419.38,-380.25 420.26,-387.2"/>
<text text-anchor="middle" x="171" y="-1021.8" font-family="Helvetica,sans-Serif" font-size="14.00">Yes (DataDome?)</text>
<text text-anchor="middle" x="171" y="-1006.8" font-family="Helvetica,sans-Serif" font-size="14.00">Skip Puppeteer&#45;Stealth</text>
</g>
<!-- PuppeteerResponse -->
<g id="node13" class="node">
<title>PuppeteerResponse</title>
<path fill="lightblue" stroke="black" d="M643,-1468C643,-1468 462,-1468 462,-1468 456,-1468 450,-1462 450,-1456 450,-1456 450,-1444 450,-1444 450,-1438 456,-1432 462,-1432 462,-1432 643,-1432 643,-1432 649,-1432 655,-1438 655,-1444 655,-1444 655,-1456 655,-1456 655,-1462 649,-1468 643,-1468"/>
<text text-anchor="middle" x="552.5" y="-1446.3" font-family="Helvetica,sans-Serif" font-size="14.00">Puppeteer HTML Received?</text>
</g>
<!-- InitialProbePuppeteer&#45;&gt;PuppeteerResponse -->
<g id="edge19" class="edge">
<title>InitialProbePuppeteer&#45;&gt;PuppeteerResponse</title>
<path fill="none" stroke="black" d="M450.82,-1504.83C469.16,-1495.12 491.87,-1483.1 511.18,-1472.88"/>
<polygon fill="black" stroke="black" points="512.86,-1475.94 520.07,-1468.17 509.59,-1469.76 512.86,-1475.94"/>
</g>
<!-- CheckCaptchaPuppeteer -->
<g id="node14" class="node">
<title>CheckCaptchaPuppeteer</title>
<path fill="lightyellow" stroke="black" d="M540.67,-1379C540.67,-1379 339.33,-1345 339.33,-1345 333.42,-1344 333.42,-1342 339.33,-1341 339.33,-1341 540.67,-1307 540.67,-1307 546.58,-1306 558.42,-1306 564.33,-1307 564.33,-1307 765.67,-1341 765.67,-1341 771.58,-1342 771.58,-1344 765.67,-1345 765.67,-1345 564.33,-1379 564.33,-1379 558.42,-1380 546.58,-1380 540.67,-1379"/>
<text text-anchor="middle" x="552.5" y="-1346.8" font-family="Helvetica,sans-Serif" font-size="14.00">CAPTCHA in Puppeteer HTML?</text>
<text text-anchor="middle" x="552.5" y="-1331.8" font-family="Helvetica,sans-Serif" font-size="14.00">(HtmlAnalyser)</text>
</g>
<!-- PuppeteerResponse&#45;&gt;CheckCaptchaPuppeteer -->
<g id="edge20" class="edge">
<title>PuppeteerResponse&#45;&gt;CheckCaptchaPuppeteer</title>
<path fill="none" stroke="black" d="M552.5,-1431.66C552.5,-1420.69 552.5,-1405.94 552.5,-1391.66"/>
<polygon fill="black" stroke="black" points="556,-1391.41 552.5,-1381.41 549,-1391.41 556,-1391.41"/>
<text text-anchor="middle" x="581" y="-1402.8" font-family="Helvetica,sans-Serif" font-size="14.00">Success</text>
</g>
<!-- CompareDOMs -->
<g id="node15" class="node">
<title>CompareDOMs</title>
<path fill="lightyellow" stroke="black" d="M818.63,-1252.24C818.63,-1252.24 586.37,-1217.76 586.37,-1217.76 580.43,-1216.88 580.43,-1215.12 586.37,-1214.24 586.37,-1214.24 818.63,-1179.76 818.63,-1179.76 824.57,-1178.88 836.43,-1178.88 842.37,-1179.76 842.37,-1179.76 1074.63,-1214.24 1074.63,-1214.24 1080.57,-1215.12 1080.57,-1216.88 1074.63,-1217.76 1074.63,-1217.76 842.37,-1252.24 842.37,-1252.24 836.43,-1253.12 824.57,-1253.12 818.63,-1252.24"/>
<text text-anchor="middle" x="830.5" y="-1219.8" font-family="Helvetica,sans-Serif" font-size="14.00">Compare cURL &amp; Puppeteer DOMs</text>
<text text-anchor="middle" x="830.5" y="-1204.8" font-family="Helvetica,sans-Serif" font-size="14.00">(DomComparator)</text>
</g>
<!-- PuppeteerResponse&#45;&gt;CompareDOMs -->
<g id="edge21" class="edge">
<title>PuppeteerResponse&#45;&gt;CompareDOMs</title>
<path fill="none" stroke="black" d="M655.09,-1441.69C700.9,-1433.31 752.16,-1416.06 786.5,-1381 816.63,-1350.24 826.7,-1301.18 829.8,-1264.73"/>
<polygon fill="black" stroke="black" points="833.32,-1264.55 830.52,-1254.33 826.33,-1264.06 833.32,-1264.55"/>
<text text-anchor="middle" x="913.5" y="-1339.3" font-family="Helvetica,sans-Serif" font-size="14.00">Fail (use cURL if available)</text>
</g>
<!-- CheckCaptchaPuppeteer&#45;&gt;CompareDOMs -->
<g id="edge22" class="edge">
<title>CheckCaptchaPuppeteer&#45;&gt;CompareDOMs</title>
<path fill="none" stroke="black" d="M612.48,-1315.03C655.49,-1295.69 713.61,-1269.56 759.02,-1249.14"/>
<polygon fill="black" stroke="black" points="760.53,-1252.3 768.22,-1245 757.66,-1245.91 760.53,-1252.3"/>
<text text-anchor="middle" x="752" y="-1275.8" font-family="Helvetica,sans-Serif" font-size="14.00">No CAPTCHA</text>
</g>
<!-- CheckCaptchaPuppeteer&#45;&gt;CaptchaHandling -->
<g id="edge23" class="edge">
<title>CheckCaptchaPuppeteer&#45;&gt;CaptchaHandling</title>
<path fill="none" stroke="black" d="M549.82,-1305.38C548.22,-1280.47 546.5,-1246.77 546.5,-1217 546.5,-1217 546.5,-1217 546.5,-1017 546.5,-953.63 526.01,-940.03 519.5,-877 516.53,-848.26 518.5,-840.89 518.5,-812 518.5,-812 518.5,-812 518.5,-507.5 518.5,-468.24 533.07,-424.87 544.17,-397.54"/>
<polygon fill="black" stroke="black" points="547.43,-398.81 548.07,-388.24 540.98,-396.11 547.43,-398.81"/>
<text text-anchor="middle" x="578.5" y="-865.8" font-family="Helvetica,sans-Serif" font-size="14.00">Yes (DataDome?)</text>
<text text-anchor="middle" x="578.5" y="-850.8" font-family="Helvetica,sans-Serif" font-size="14.00">Use Puppeteer</text>
</g>
<!-- PreparePageForLLM -->
<g id="node16" class="node">
<title>PreparePageForLLM</title>
<path fill="lightblue" stroke="black" d="M946,-1112C946,-1112 715,-1112 715,-1112 709,-1112 703,-1106 703,-1100 703,-1100 703,-1086 703,-1086 703,-1080 709,-1074 715,-1074 715,-1074 946,-1074 946,-1074 952,-1074 958,-1080 958,-1086 958,-1086 958,-1100 958,-1100 958,-1106 952,-1112 946,-1112"/>
<text text-anchor="middle" x="830.5" y="-1096.8" font-family="Helvetica,sans-Serif" font-size="14.00">Prepare Page for LLM</text>
<text text-anchor="middle" x="830.5" y="-1081.8" font-family="Helvetica,sans-Serif" font-size="14.00">(Puppeteer Interactions if needed)</text>
</g>
<!-- CompareDOMs&#45;&gt;PreparePageForLLM -->
<g id="edge24" class="edge">
<title>CompareDOMs&#45;&gt;PreparePageForLLM</title>
<path fill="none" stroke="black" d="M830.5,-1177.71C830.5,-1159.82 830.5,-1138.75 830.5,-1122.22"/>
<polygon fill="black" stroke="black" points="834,-1122.09 830.5,-1112.09 827,-1122.09 834,-1122.09"/>
<text text-anchor="middle" x="921" y="-1148.8" font-family="Helvetica,sans-Serif" font-size="14.00">Choose HTML for Analysis</text>
<text text-anchor="middle" x="921" y="-1133.8" font-family="Helvetica,sans-Serif" font-size="14.00">(cURL or Puppeteer)</text>
</g>
<!-- ExtractSnippets -->
<g id="node17" class="node">
<title>ExtractSnippets</title>
<path fill="lightblue" stroke="black" d="M990,-1037C990,-1037 775,-1037 775,-1037 769,-1037 763,-1031 763,-1025 763,-1025 763,-1011 763,-1011 763,-1005 769,-999 775,-999 775,-999 990,-999 990,-999 996,-999 1002,-1005 1002,-1011 1002,-1011 1002,-1025 1002,-1025 1002,-1031 996,-1037 990,-1037"/>
<text text-anchor="middle" x="882.5" y="-1021.8" font-family="Helvetica,sans-Serif" font-size="14.00">Extract Snippets/DOM Structure</text>
<text text-anchor="middle" x="882.5" y="-1006.8" font-family="Helvetica,sans-Serif" font-size="14.00">(HtmlAnalyser)</text>
</g>
<!-- PreparePageForLLM&#45;&gt;ExtractSnippets -->
<g id="edge25" class="edge">
<title>PreparePageForLLM&#45;&gt;ExtractSnippets</title>
<path fill="none" stroke="black" d="M843.35,-1073.96C849.48,-1065.36 856.93,-1054.9 863.67,-1045.43"/>
<polygon fill="black" stroke="black" points="866.66,-1047.27 869.61,-1037.09 860.96,-1043.2 866.66,-1047.27"/>
</g>
<!-- LLMXPathDiscovery -->
<g id="node18" class="node">
<title>LLMXPathDiscovery</title>
<path fill="lightblue" stroke="black" d="M1064,-948C1064,-948 705,-948 705,-948 699,-948 693,-942 693,-936 693,-936 693,-907 693,-907 693,-901 699,-895 705,-895 705,-895 1064,-895 1064,-895 1070,-895 1076,-901 1076,-907 1076,-907 1076,-936 1076,-936 1076,-942 1070,-948 1064,-948"/>
<text text-anchor="middle" x="884.5" y="-932.8" font-family="Helvetica,sans-Serif" font-size="14.00">LLM XPath Discovery Loop</text>
<text text-anchor="middle" x="884.5" y="-917.8" font-family="Helvetica,sans-Serif" font-size="14.00">(LLMInterface, HtmlAnalyser, ContentScoringEngine)</text>
<text text-anchor="middle" x="884.5" y="-902.8" font-family="Helvetica,sans-Serif" font-size="14.00">Up to MAX_LLM_RETRIES</text>
</g>
<!-- ExtractSnippets&#45;&gt;LLMXPathDiscovery -->
<g id="edge26" class="edge">
<title>ExtractSnippets&#45;&gt;LLMXPathDiscovery</title>
<path fill="none" stroke="black" d="M882.89,-998.78C883.13,-987.33 883.45,-972.16 883.74,-958.36"/>
<polygon fill="black" stroke="black" points="887.24,-958.24 883.96,-948.17 880.25,-958.09 887.24,-958.24"/>
</g>
<!-- XPathFoundLLM -->
<g id="node19" class="node">
<title>XPathFoundLLM</title>
<path fill="lightyellow" stroke="black" d="M890.58,-827.58C890.58,-827.58 763.43,-812.42 763.43,-812.42 757.47,-811.71 757.47,-810.29 763.43,-809.58 763.43,-809.58 890.58,-794.42 890.58,-794.42 896.54,-793.71 908.46,-793.71 914.42,-794.42 914.42,-794.42 1041.57,-809.58 1041.57,-809.58 1047.53,-810.29 1047.53,-811.71 1041.57,-812.42 1041.57,-812.42 914.42,-827.58 914.42,-827.58 908.46,-828.29 896.54,-828.29 890.58,-827.58"/>
<text text-anchor="middle" x="902.5" y="-807.3" font-family="Helvetica,sans-Serif" font-size="14.00">XPath Found by LLM?</text>
</g>
<!-- LLMXPathDiscovery&#45;&gt;XPathFoundLLM -->
<g id="edge27" class="edge">
<title>LLMXPathDiscovery&#45;&gt;XPathFoundLLM</title>
<path fill="none" stroke="black" d="M888.77,-894.79C891.57,-877.87 895.24,-855.78 898.08,-838.67"/>
<polygon fill="black" stroke="black" points="901.54,-839.19 899.72,-828.75 894.63,-838.04 901.54,-839.19"/>
</g>
<!-- DetermineMethodToStore -->
<g id="node20" class="node">
<title>DetermineMethodToStore</title>
<path fill="lightblue" stroke="black" d="M1056,-742C1056,-742 749,-742 749,-742 743,-742 737,-736 737,-730 737,-730 737,-716 737,-716 737,-710 743,-704 749,-704 749,-704 1056,-704 1056,-704 1062,-704 1068,-710 1068,-716 1068,-716 1068,-730 1068,-730 1068,-736 1062,-742 1056,-742"/>
<text text-anchor="middle" x="902.5" y="-726.8" font-family="Helvetica,sans-Serif" font-size="14.00">Determine Method to Store</text>
<text text-anchor="middle" x="902.5" y="-711.8" font-family="Helvetica,sans-Serif" font-size="14.00">(curl, puppeteer_stealth, puppeteer_captcha)</text>
</g>
<!-- XPathFoundLLM&#45;&gt;DetermineMethodToStore -->
<g id="edge28" class="edge">
<title>XPathFoundLLM&#45;&gt;DetermineMethodToStore</title>
<path fill="none" stroke="black" d="M902.5,-792.6C902.5,-781.06 902.5,-765.65 902.5,-752.36"/>
<polygon fill="black" stroke="black" points="906,-752.27 902.5,-742.27 899,-752.27 906,-752.27"/>
<text text-anchor="middle" x="914" y="-763.8" font-family="Helvetica,sans-Serif" font-size="14.00">Yes</text>
</g>
<!-- XPathFoundLLM&#45;&gt;SaveHtmlFailure -->
<g id="edge31" class="edge">
<title>XPathFoundLLM&#45;&gt;SaveHtmlFailure</title>
<path fill="none" stroke="black" d="M1000.72,-804.64C1103.02,-796.28 1248.5,-775.37 1248.5,-724 1248.5,-724 1248.5,-724 1248.5,-193 1248.5,-159 1162.62,-134.99 1093.18,-121.13"/>
<polygon fill="black" stroke="black" points="1093.56,-117.64 1083.07,-119.16 1092.22,-124.51 1093.56,-117.64"/>
<text text-anchor="middle" x="1322" y="-409.8" font-family="Helvetica,sans-Serif" font-size="14.00">No (Discovery Failed)</text>
</g>
<!-- StoreNewConfig -->
<g id="node21" class="node">
<title>StoreNewConfig</title>
<path fill="lightblue" stroke="black" d="M992,-667C992,-667 813,-667 813,-667 807,-667 801,-661 801,-655 801,-655 801,-641 801,-641 801,-635 807,-629 813,-629 813,-629 992,-629 992,-629 998,-629 1004,-635 1004,-641 1004,-641 1004,-655 1004,-655 1004,-661 998,-667 992,-667"/>
<text text-anchor="middle" x="902.5" y="-651.8" font-family="Helvetica,sans-Serif" font-size="14.00">Store New Config</text>
<text text-anchor="middle" x="902.5" y="-636.8" font-family="Helvetica,sans-Serif" font-size="14.00">(KnownSitesTableManager)</text>
</g>
<!-- DetermineMethodToStore&#45;&gt;StoreNewConfig -->
<g id="edge29" class="edge">
<title>DetermineMethodToStore&#45;&gt;StoreNewConfig</title>
<path fill="none" stroke="black" d="M902.5,-703.96C902.5,-695.88 902.5,-686.18 902.5,-677.18"/>
<polygon fill="black" stroke="black" points="906,-677.09 902.5,-667.09 899,-677.09 906,-677.09"/>
</g>
<!-- ExtractionProcess -->
<g id="node22" class="node">
<title>ExtractionProcess</title>
<path fill="lightcyan" stroke="black" d="M597,-439.5C597,-439.5 1208,-439.5 1208,-439.5 1214,-439.5 1220,-445.5 1220,-451.5 1220,-451.5 1220,-565.5 1220,-565.5 1220,-571.5 1214,-577.5 1208,-577.5 1208,-577.5 597,-577.5 597,-577.5 591,-577.5 585,-571.5 585,-565.5 585,-565.5 585,-451.5 585,-451.5 585,-445.5 591,-439.5 597,-439.5"/>
<text text-anchor="middle" x="902.5" y="-562.3" font-family="Helvetica,sans-Serif" font-size="14.00">Extraction Sub&#45;system</text>
<polyline fill="none" stroke="black" points="585,-554.5 1220,-554.5 "/>
<text text-anchor="middle" x="902.5" y="-539.3" font-family="Helvetica,sans-Serif" font-size="14.00">Method, XPath, CAPTCHA Need Known</text>
<polyline fill="none" stroke="black" points="585,-531.5 1220,-531.5 "/>
<text text-anchor="middle" x="902.5" y="-516.3" font-family="Helvetica,sans-Serif" font-size="14.00">D.2 CAPTCHA Handling (CaptchaSolver, DataDomeSolver) if method=puppeteer_captcha</text>
<polyline fill="none" stroke="black" points="585,-508.5 1220,-508.5 "/>
<text text-anchor="middle" x="902.5" y="-493.3" font-family="Helvetica,sans-Serif" font-size="14.00">Execute Method (CurlHandler or PuppeteerController)</text>
<polyline fill="none" stroke="black" points="585,-485.5 1220,-485.5 "/>
<text text-anchor="middle" x="902.5" y="-470.3" font-family="Helvetica,sans-Serif" font-size="14.00">Extract Content via XPath</text>
<polyline fill="none" stroke="black" points="585,-462.5 1220,-462.5 "/>
<text text-anchor="middle" x="902.5" y="-447.3" font-family="Helvetica,sans-Serif" font-size="14.00">Basic Validation</text>
</g>
<!-- StoreNewConfig&#45;&gt;ExtractionProcess -->
<g id="edge30" class="edge">
<title>StoreNewConfig&#45;&gt;ExtractionProcess</title>
<path fill="none" stroke="black" d="M902.5,-628.74C902.5,-617.83 902.5,-603.15 902.5,-587.82"/>
<polygon fill="black" stroke="black" points="906,-587.68 902.5,-577.68 899,-587.68 906,-587.68"/>
<text text-anchor="middle" x="966" y="-599.8" font-family="Helvetica,sans-Serif" font-size="14.00">Proceed to Extract</text>
</g>
<!-- ExtractionProcess&#45;&gt;CaptchaHandling -->
<g id="edge33" class="edge">
<title>ExtractionProcess&#45;&gt;CaptchaHandling</title>
<path fill="none" stroke="black" d="M619.13,-439.31C609.19,-433.68 599.61,-427.59 590.5,-421 581.93,-414.79 574.88,-405.71 569.48,-396.93"/>
<polygon fill="black" stroke="black" points="572.4,-394.99 564.44,-388.01 566.31,-398.44 572.4,-394.99"/>
<text text-anchor="middle" x="697.5" y="-409.8" font-family="Helvetica,sans-Serif" font-size="14.00">If method=puppeteer_captcha</text>
</g>
<!-- ExtractionProcess&#45;&gt;SaveHtmlFailure -->
<g id="edge41" class="edge">
<title>ExtractionProcess&#45;&gt;SaveHtmlFailure</title>
<path fill="none" stroke="black" d="M979.72,-439.46C995.03,-419.15 1006.5,-395.44 1006.5,-370 1006.5,-370 1006.5,-370 1006.5,-193 1006.5,-173.77 1006.5,-152.12 1006.5,-135.36"/>
<polygon fill="black" stroke="black" points="1010,-135.12 1006.5,-125.12 1003,-135.12 1010,-135.12"/>
<text text-anchor="middle" x="1113.5" y="-277.3" font-family="Helvetica,sans-Serif" font-size="14.00">Critical Error During Extraction</text>
</g>
<!-- ExecuteExtractionMethod -->
<g id="node29" class="node">
<title>ExecuteExtractionMethod</title>
<path fill="lightblue" stroke="black" d="M864,-299C864,-299 631,-299 631,-299 625,-299 619,-293 619,-287 619,-287 619,-275 619,-275 619,-269 625,-263 631,-263 631,-263 864,-263 864,-263 870,-263 876,-269 876,-275 876,-275 876,-287 876,-287 876,-293 870,-299 864,-299"/>
<text text-anchor="middle" x="747.5" y="-277.3" font-family="Helvetica,sans-Serif" font-size="14.00">Execute Method &amp; Extract Content</text>
</g>
<!-- ExtractionProcess&#45;&gt;ExecuteExtractionMethod -->
<g id="edge36" class="edge">
<title>ExtractionProcess&#45;&gt;ExecuteExtractionMethod</title>
<path fill="none" stroke="black" d="M843.88,-439.45C831.62,-427.41 818.22,-415.65 804.5,-406 788.55,-394.79 776.35,-403.48 764.5,-388 747.38,-365.64 744.55,-332.76 745.1,-309.56"/>
<polygon fill="black" stroke="black" points="748.61,-309.49 745.57,-299.34 741.61,-309.17 748.61,-309.49"/>
<text text-anchor="middle" x="878.5" y="-365.3" font-family="Helvetica,sans-Serif" font-size="14.00">If method != puppeteer_captcha</text>
</g>
<!-- CaptchaHandling&#45;&gt;InitialProbePuppeteer -->
<g id="edge17" class="edge">
<title>CaptchaHandling&#45;&gt;InitialProbePuppeteer</title>
<path fill="none" stroke="black" d="M429.69,-380.81C350.5,-395.33 263.5,-429.11 263.5,-507.5 263.5,-922.5 263.5,-922.5 263.5,-922.5 263.5,-948.59 265.64,-955.06 268.5,-981 272.14,-1013.99 278.5,-1021.81 278.5,-1055 278.5,-1451 278.5,-1451 278.5,-1451 278.5,-1474.17 293.98,-1489.9 314.58,-1500.57"/>
<polygon fill="black" stroke="black" points="313.15,-1503.76 323.69,-1504.84 316.12,-1497.43 313.15,-1503.76"/>
<text text-anchor="middle" x="402.5" y="-969.8" font-family="Helvetica,sans-Serif" font-size="14.00">CAPTCHA Not Solved / Other CAPTCHA</text>
</g>
<!-- CaptchaHandling&#45;&gt;PreparePageForLLM -->
<g id="edge18" class="edge">
<title>CaptchaHandling&#45;&gt;PreparePageForLLM</title>
<path fill="none" stroke="black" d="M557.2,-388.13C560.69,-462.02 580.57,-746.03 684.5,-948 707.53,-992.75 718.21,-1002.13 754.5,-1037 766.25,-1048.29 780.43,-1059.16 793.34,-1068.21"/>
<polygon fill="black" stroke="black" points="791.38,-1071.11 801.61,-1073.88 795.34,-1065.34 791.38,-1071.11"/>
<text text-anchor="middle" x="728.5" y="-763.8" font-family="Helvetica,sans-Serif" font-size="14.00">DataDome Solved by Puppeteer</text>
</g>
<!-- CaptchaHandling&#45;&gt;SaveHtmlFailure -->
<g id="edge35" class="edge">
<title>CaptchaHandling&#45;&gt;SaveHtmlFailure</title>
<path fill="none" stroke="black" d="M550.91,-349.7C539.08,-306.83 516.89,-199.26 572.5,-143 596.32,-118.9 799.62,-110.9 919.33,-108.27"/>
<polygon fill="black" stroke="black" points="919.66,-111.76 929.58,-108.05 919.51,-104.76 919.66,-111.76"/>
<text text-anchor="middle" x="574.5" y="-233.8" font-family="Helvetica,sans-Serif" font-size="14.00">Not Solved</text>
</g>
<!-- CaptchaHandling&#45;&gt;ExecuteExtractionMethod -->
<g id="edge34" class="edge">
<title>CaptchaHandling&#45;&gt;ExecuteExtractionMethod</title>
<path fill="none" stroke="black" d="M596.54,-349.97C626.81,-336.34 668.45,-317.59 700.33,-303.24"/>
<polygon fill="black" stroke="black" points="701.78,-306.42 709.46,-299.13 698.91,-300.04 701.78,-306.42"/>
<text text-anchor="middle" x="692" y="-320.8" font-family="Helvetica,sans-Serif" font-size="14.00">Solved</text>
</g>
<!-- CaptchaSolved -->
<g id="node24" class="node">
<title>CaptchaSolved</title>
<path fill="lightyellow" stroke="black" d="M590.62,-2551.34C590.62,-2551.34 485.52,-2536.66 485.52,-2536.66 479.58,-2535.83 479.58,-2534.17 485.52,-2533.34 485.52,-2533.34 590.62,-2518.66 590.62,-2518.66 596.56,-2517.83 608.44,-2517.83 614.38,-2518.66 614.38,-2518.66 719.48,-2533.34 719.48,-2533.34 725.42,-2534.17 725.42,-2535.83 719.48,-2536.66 719.48,-2536.66 614.38,-2551.34 614.38,-2551.34 608.44,-2552.17 596.56,-2552.17 590.62,-2551.34"/>
<text text-anchor="middle" x="602.5" y="-2531.3" font-family="Helvetica,sans-Serif" font-size="14.00">CAPTCHA Solved?</text>
</g>
<!-- SaveHtmlSuccess -->
<g id="node25" class="node">
<title>SaveHtmlSuccess</title>
<polygon fill="lightgrey" stroke="black" points="576,-125 171,-125 171,-87 582,-87 582,-119 576,-125"/>
<polyline fill="none" stroke="black" points="576,-125 576,-119 "/>
<polyline fill="none" stroke="black" points="582,-119 576,-119 "/>
<text text-anchor="middle" x="376.5" y="-109.8" font-family="Helvetica,sans-Serif" font-size="14.00">Save HTML (Success)</text>
<text text-anchor="middle" x="376.5" y="-94.8" font-family="Helvetica,sans-Serif" font-size="14.00">(if DEBUG=true &amp; SAVE_HTML_ON_SUCCESS_NAV=true)</text>
</g>
<!-- SaveHtmlSuccess&#45;&gt;EndSuccess -->
<g id="edge9" class="edge">
<title>SaveHtmlSuccess&#45;&gt;EndSuccess</title>
<path fill="none" stroke="black" d="M376.5,-86.76C376.5,-74.93 376.5,-59.32 376.5,-46.05"/>
<polygon fill="black" stroke="black" points="380,-46.04 376.5,-36.04 373,-46.04 380,-46.04"/>
</g>
<!-- SaveHtmlFailure&#45;&gt;EndError -->
<g id="edge32" class="edge">
<title>SaveHtmlFailure&#45;&gt;EndError</title>
<path fill="none" stroke="black" d="M960.34,-86.94C945.99,-78.43 935.72,-67.22 943.5,-54 947.25,-47.62 952.63,-42.33 958.69,-37.95"/>
<polygon fill="black" stroke="black" points="960.68,-40.83 967.27,-32.54 956.95,-34.91 960.68,-40.83"/>
<text text-anchor="middle" x="1000" y="-57.8" font-family="Helvetica,sans-Serif" font-size="14.00">Discovery Failed</text>
</g>
<!-- SaveHtmlFailure&#45;&gt;EndError -->
<g id="edge42" class="edge">
<title>SaveHtmlFailure&#45;&gt;EndError</title>
<path fill="none" stroke="black" d="M1041.61,-86.91C1053.83,-78.02 1063.03,-66.54 1056.5,-54 1053.77,-48.76 1049.86,-44.15 1045.42,-40.13"/>
<polygon fill="black" stroke="black" points="1047.56,-37.36 1037.53,-33.93 1043.23,-42.86 1047.56,-37.36"/>
</g>
<!-- UpdateSuccessStats&#45;&gt;SaveHtmlSuccess -->
<g id="edge8" class="edge">
<title>UpdateSuccessStats&#45;&gt;SaveHtmlSuccess</title>
<path fill="none" stroke="black" d="M82.14,-2063.65C77.63,-2058.38 73.32,-2052.33 70.5,-2046 34.93,-1966.19 45.5,-1938.38 45.5,-1851 45.5,-1851 45.5,-1851 45.5,-193 45.5,-160.04 107.76,-139.49 178.28,-126.79"/>
<polygon fill="black" stroke="black" points="179.02,-130.21 188.28,-125.05 177.82,-123.32 179.02,-130.21"/>
</g>
<!-- IncrementFailureAndRediscover&#45;&gt;DiscoveryProcess -->
<g id="edge10" class="edge">
<title>IncrementFailureAndRediscover&#45;&gt;DiscoveryProcess</title>
<path fill="none" stroke="black" d="M306.39,-2119.78C307.13,-2103.82 310.3,-2080.64 321.5,-2064 323.95,-2060.37 326.56,-2056.83 329.33,-2053.38"/>
<polygon fill="black" stroke="black" points="332.21,-2055.4 336.03,-2045.52 326.88,-2050.86 332.21,-2055.4"/>
<text text-anchor="middle" x="394" y="-2079.3" font-family="Helvetica,sans-Serif" font-size="14.00">Trigger Re&#45;Discovery</text>
</g>
<!-- ExtractionSuccessFromDiscovery -->
<g id="node30" class="node">
<title>ExtractionSuccessFromDiscovery</title>
<path fill="lightyellow" stroke="black" d="M735.58,-210.65C735.58,-210.65 600.4,-195.35 600.4,-195.35 594.43,-194.67 594.43,-193.33 600.4,-192.65 600.4,-192.65 735.58,-177.35 735.58,-177.35 741.54,-176.67 753.46,-176.67 759.42,-177.35 759.42,-177.35 894.6,-192.65 894.6,-192.65 900.57,-193.33 900.57,-194.67 894.6,-195.35 894.6,-195.35 759.42,-210.65 759.42,-210.65 753.46,-211.33 741.54,-211.33 735.58,-210.65"/>
<text text-anchor="middle" x="747.5" y="-190.3" font-family="Helvetica,sans-Serif" font-size="14.00">Extraction Successful?</text>
</g>
<!-- ExecuteExtractionMethod&#45;&gt;ExtractionSuccessFromDiscovery -->
<g id="edge37" class="edge">
<title>ExecuteExtractionMethod&#45;&gt;ExtractionSuccessFromDiscovery</title>
<path fill="none" stroke="black" d="M747.5,-262.8C747.5,-251.16 747.5,-235.55 747.5,-222.24"/>
<polygon fill="black" stroke="black" points="751,-222.18 747.5,-212.18 744,-222.18 751,-222.18"/>
<text text-anchor="middle" x="811" y="-233.8" font-family="Helvetica,sans-Serif" font-size="14.00">Content Extracted</text>
</g>
<!-- ExtractionSuccessFromDiscovery&#45;&gt;SaveHtmlSuccess -->
<g id="edge38" class="edge">
<title>ExtractionSuccessFromDiscovery&#45;&gt;SaveHtmlSuccess</title>
<path fill="none" stroke="black" d="M697.85,-181.49C638.26,-167.68 537.26,-144.27 464.38,-127.37"/>
<polygon fill="black" stroke="black" points="464.82,-123.88 454.29,-125.03 463.24,-130.7 464.82,-123.88"/>
<text text-anchor="middle" x="606" y="-146.8" font-family="Helvetica,sans-Serif" font-size="14.00">Yes</text>
</g>
<!-- ExtractionSuccessFromDiscovery&#45;&gt;SaveHtmlFailure -->
<g id="edge39" class="edge">
<title>ExtractionSuccessFromDiscovery&#45;&gt;SaveHtmlFailure</title>
<path fill="none" stroke="black" d="M771.16,-178.43C790.12,-167.32 817.72,-152.38 843.5,-143 867.78,-134.17 894.93,-127.12 919.99,-121.69"/>
<polygon fill="black" stroke="black" points="920.79,-125.1 929.85,-119.61 919.34,-118.25 920.79,-125.1"/>
<text text-anchor="middle" x="918" y="-146.8" font-family="Helvetica,sans-Serif" font-size="14.00">No (Extraction Failed)</text>
</g>
</g>
</svg>
