<?xml version="1.0" encoding="UTF-8" standalone="no"?>
<!DOCTYPE svg PUBLIC "-//W3C//DTD SVG 1.1//EN"
 "http://www.w3.org/Graphics/SVG/1.1/DTD/svg11.dtd">
<!-- Generated by graphviz version 2.43.0 (0)
 -->
<!-- Title: execution_logic Pages: 1 -->
<svg width="884pt" height="2666pt"
 viewBox="0.00 0.00 883.92 2665.59" xmlns="http://www.w3.org/2000/svg" xmlns:xlink="http://www.w3.org/1999/xlink">
<g id="graph0" class="graph" transform="scale(1 1) rotate(0) translate(4 2661.59)">
<title>execution_logic</title>
<polygon fill="white" stroke="transparent" points="-4,4 -4,-2661.59 879.92,-2661.59 879.92,4 -4,4"/>
<g id="clust1" class="cluster">
<title>cluster_puppeteer</title>
<polygon fill="none" stroke="purple" stroke-dasharray="5,2" points="232.92,-203.59 232.92,-2288.59 867.92,-2288.59 867.92,-203.59 232.92,-203.59"/>
<text text-anchor="middle" x="550.42" y="-2273.39" font-family="Times,serif" font-size="14.00">Puppeteer Instance</text>
</g>
<!-- node0 -->
<g id="node1" class="node">
<title>node0</title>
<polygon fill="lightgreen" stroke="black" points="347.92,-2657.59 201.92,-2657.59 201.92,-2621.59 347.92,-2621.59 347.92,-2657.59"/>
<text text-anchor="middle" x="274.92" y="-2635.89" font-family="Times,serif" font-size="14.00">0: getContent(url)</text>
</g>
<!-- node2 -->
<g id="node3" class="node">
<title>node2</title>
<polygon fill="lightblue" stroke="black" points="371.92,-2584.59 177.92,-2584.59 177.92,-2548.59 371.92,-2548.59 371.92,-2584.59"/>
<text text-anchor="middle" x="274.92" y="-2562.89" font-family="Times,serif" font-size="14.00">2: Get Domain from URL</text>
</g>
<!-- node0&#45;&gt;node2 -->
<g id="edge1" class="edge">
<title>node0&#45;&gt;node2</title>
<path fill="none" stroke="gray" d="M274.92,-2621.4C274.92,-2613.38 274.92,-2603.64 274.92,-2594.66"/>
<polygon fill="gray" stroke="gray" points="278.42,-2594.62 274.92,-2584.62 271.42,-2594.62 278.42,-2594.62"/>
</g>
<!-- node1 -->
<g id="node2" class="node">
<title>node1</title>
<polygon fill="salmon" stroke="black" points="289.76,-2472.14 289.76,-2487.05 204.91,-2497.59 84.93,-2497.59 0.08,-2487.05 0.08,-2472.14 84.93,-2461.59 204.91,-2461.59 289.76,-2472.14"/>
<text text-anchor="middle" x="144.92" y="-2475.89" font-family="Times,serif" font-size="14.00">1: Error: No URL provided</text>
</g>
<!-- node35 -->
<g id="node36" class="node">
<title>node35</title>
<ellipse fill="salmon" stroke="black" cx="183.92" cy="-46.8" rx="46.59" ry="46.59"/>
<text text-anchor="middle" x="183.92" y="-43.1" font-family="Times,serif" font-size="14.00">35: End</text>
</g>
<!-- node1&#45;&gt;node35 -->
<g id="edge54" class="edge">
<title>node1&#45;&gt;node35</title>
<path fill="none" stroke="gray" d="M144.92,-2461.38C144.92,-2447 144.92,-2425.96 144.92,-2407.59 144.92,-2407.59 144.92,-2407.59 144.92,-151.59 144.92,-133.25 150.32,-114.18 157.11,-97.46"/>
<polygon fill="gray" stroke="gray" points="160.48,-98.49 161.23,-87.92 154.05,-95.71 160.48,-98.49"/>
</g>
<!-- node2&#45;&gt;node1 -->
<g id="edge2" class="edge">
<title>node2&#45;&gt;node1</title>
<path fill="none" stroke="gray" d="M248.61,-2548.39C228.79,-2535.43 201.42,-2517.53 179.77,-2503.38"/>
<polygon fill="gray" stroke="gray" points="181.47,-2500.31 171.19,-2497.77 177.64,-2506.17 181.47,-2500.31"/>
<text text-anchor="middle" x="260.42" y="-2519.39" font-family="Times,serif" font-size="14.00">Invalid URL</text>
</g>
<!-- node3 -->
<g id="node4" class="node">
<title>node3</title>
<polygon fill="lightblue" stroke="black" points="501.92,-2497.59 307.92,-2497.59 307.92,-2461.59 501.92,-2461.59 501.92,-2497.59"/>
<text text-anchor="middle" x="404.92" y="-2475.89" font-family="Times,serif" font-size="14.00">3: Load site_storage.json</text>
</g>
<!-- node2&#45;&gt;node3 -->
<g id="edge3" class="edge">
<title>node2&#45;&gt;node3</title>
<path fill="none" stroke="gray" d="M301.23,-2548.39C321.05,-2535.43 348.42,-2517.53 370.07,-2503.38"/>
<polygon fill="gray" stroke="gray" points="372.2,-2506.17 378.65,-2497.77 368.37,-2500.31 372.2,-2506.17"/>
<text text-anchor="middle" x="382.92" y="-2519.39" font-family="Times,serif" font-size="14.00">Valid URL</text>
</g>
<!-- node4 -->
<g id="node5" class="node">
<title>node4</title>
<polygon fill="lightblue" stroke="black" points="530.92,-2424.59 278.92,-2424.59 278.92,-2388.59 530.92,-2388.59 530.92,-2424.59"/>
<text text-anchor="middle" x="404.92" y="-2402.89" font-family="Times,serif" font-size="14.00">4: Check for stored XPath/Cookie</text>
</g>
<!-- node3&#45;&gt;node4 -->
<g id="edge4" class="edge">
<title>node3&#45;&gt;node4</title>
<path fill="none" stroke="gray" d="M404.92,-2461.4C404.92,-2453.38 404.92,-2443.64 404.92,-2434.66"/>
<polygon fill="gray" stroke="gray" points="408.42,-2434.62 404.92,-2424.62 401.42,-2434.62 408.42,-2434.62"/>
</g>
<!-- node5 -->
<g id="node6" class="node">
<title>node5</title>
<polygon fill="lightblue" stroke="black" points="543.92,-2351.59 265.92,-2351.59 265.92,-2315.59 543.92,-2315.59 543.92,-2351.59"/>
<text text-anchor="middle" x="404.92" y="-2329.89" font-family="Times,serif" font-size="14.00">5: Check if Domain needs DataDome</text>
</g>
<!-- node4&#45;&gt;node5 -->
<g id="edge5" class="edge">
<title>node4&#45;&gt;node5</title>
<path fill="none" stroke="gray" d="M404.92,-2388.4C404.92,-2380.38 404.92,-2370.64 404.92,-2361.66"/>
<polygon fill="gray" stroke="gray" points="408.42,-2361.62 404.92,-2351.62 401.42,-2361.62 408.42,-2361.62"/>
</g>
<!-- node6 -->
<g id="node7" class="node">
<title>node6</title>
<polygon fill="lightblue" stroke="black" points="512.92,-2257.59 296.92,-2257.59 296.92,-2221.59 512.92,-2221.59 512.92,-2257.59"/>
<text text-anchor="middle" x="404.92" y="-2235.89" font-family="Times,serif" font-size="14.00">6: launchPuppeteerBrowser</text>
</g>
<!-- node5&#45;&gt;node6 -->
<g id="edge6" class="edge">
<title>node5&#45;&gt;node6</title>
<path fill="none" stroke="gray" d="M404.92,-2315.29C404.92,-2302.05 404.92,-2283.54 404.92,-2268.26"/>
<polygon fill="gray" stroke="gray" points="408.42,-2267.82 404.92,-2257.82 401.42,-2267.82 408.42,-2267.82"/>
</g>
<!-- node7 -->
<g id="node8" class="node">
<title>node7</title>
<polygon fill="lightblue" stroke="black" points="527.92,-2170.59 369.92,-2170.59 369.92,-2134.59 527.92,-2134.59 527.92,-2170.59"/>
<text text-anchor="middle" x="448.92" y="-2148.89" font-family="Times,serif" font-size="14.00">7: Create New Page</text>
</g>
<!-- node6&#45;&gt;node7 -->
<g id="edge7" class="edge">
<title>node6&#45;&gt;node7</title>
<path fill="none" stroke="gray" d="M413.82,-2221.39C420.03,-2209.41 428.41,-2193.21 435.43,-2179.65"/>
<polygon fill="gray" stroke="gray" points="438.54,-2181.26 440.03,-2170.77 432.32,-2178.04 438.54,-2181.26"/>
<text text-anchor="middle" x="468.42" y="-2192.39" font-family="Times,serif" font-size="14.00">Launch OK</text>
</g>
<!-- node30 -->
<g id="node31" class="node">
<title>node30</title>
<polygon fill="salmon" stroke="black" points="488.42,-1510.59 271.42,-1510.59 271.42,-1474.59 488.42,-1474.59 488.42,-1510.59"/>
<text text-anchor="middle" x="379.92" y="-1488.89" font-family="Times,serif" font-size="14.00">30: Save HTML (On Failure)</text>
</g>
<!-- node6&#45;&gt;node30 -->
<g id="edge8" class="edge">
<title>node6&#45;&gt;node30</title>
<path fill="none" stroke="gray" d="M323.81,-2221.45C290.2,-2209.14 258.92,-2188.35 258.92,-2153.59 258.92,-2153.59 258.92,-2153.59 258.92,-1919.09 258.92,-1808.17 208.82,-1771.37 252.92,-1669.59 275.16,-1618.25 293.23,-1606.3 343.92,-1582.59 376.33,-1567.43 480.08,-1591.27 503.92,-1564.59 514.58,-1552.66 513.57,-1541.35 503.92,-1528.59 499.7,-1523.01 490.13,-1518.07 478.09,-1513.79"/>
<polygon fill="gray" stroke="gray" points="479.04,-1510.42 468.45,-1510.64 476.87,-1517.07 479.04,-1510.42"/>
<text text-anchor="middle" x="307.92" y="-1872.89" font-family="Times,serif" font-size="14.00">Launch Failed</text>
</g>
<!-- node8 -->
<g id="node9" class="node">
<title>node8</title>
<polygon fill="lightblue" stroke="black" points="651.42,-2083.59 394.42,-2083.59 394.42,-2047.59 651.42,-2047.59 651.42,-2083.59"/>
<text text-anchor="middle" x="522.92" y="-2061.89" font-family="Times,serif" font-size="14.00">8: Set Stored Cookie (if available)</text>
</g>
<!-- node7&#45;&gt;node8 -->
<g id="edge11" class="edge">
<title>node7&#45;&gt;node8</title>
<path fill="none" stroke="gray" d="M463.89,-2134.39C474.63,-2122.06 489.25,-2105.27 501.25,-2091.48"/>
<polygon fill="gray" stroke="gray" points="504.04,-2093.61 507.97,-2083.77 498.76,-2089.01 504.04,-2093.61"/>
<text text-anchor="middle" x="520.42" y="-2105.39" font-family="Times,serif" font-size="14.00">Page OK</text>
</g>
<!-- node9 -->
<g id="node10" class="node">
<title>node9</title>
<polygon fill="lightblue" stroke="black" points="674.92,-1981.59 278.92,-1981.59 278.92,-1945.59 674.92,-1945.59 674.92,-1981.59"/>
<text text-anchor="middle" x="476.92" y="-1959.89" font-family="Times,serif" font-size="14.00">9: navigateAndPreparePage (Skip Explicit DD Check)</text>
</g>
<!-- node8&#45;&gt;node9 -->
<g id="edge12" class="edge">
<title>node8&#45;&gt;node9</title>
<path fill="none" stroke="gray" d="M518.53,-2047.52C514.76,-2034.1 508.7,-2015.15 500.92,-1999.59 499.36,-1996.47 497.55,-1993.3 495.64,-1990.21"/>
<polygon fill="gray" stroke="gray" points="498.54,-1988.24 490.12,-1981.82 492.69,-1992.09 498.54,-1988.24"/>
<text text-anchor="middle" x="594.42" y="-2010.89" font-family="Times,serif" font-size="14.00">Stored Cookie &amp; XPath</text>
</g>
<!-- node8&#45;&gt;node9 -->
<g id="edge13" class="edge">
<title>node8&#45;&gt;node9</title>
<path fill="none" stroke="gray" d="M394.32,-2049.13C374.68,-2044.24 358.67,-2037.87 351.92,-2029.59 343.49,-2019.26 343.86,-2010.22 351.92,-1999.59 356.15,-1994.01 365.7,-1989.08 377.73,-1984.81"/>
<polygon fill="gray" stroke="gray" points="378.94,-1988.09 387.36,-1981.67 376.77,-1981.44 378.94,-1988.09"/>
<text text-anchor="middle" x="424.42" y="-2018.39" font-family="Times,serif" font-size="14.00">Stored XPath Only</text>
<text text-anchor="middle" x="424.42" y="-2003.39" font-family="Times,serif" font-size="14.00">AND No DD Needed</text>
</g>
<!-- node15 -->
<g id="node16" class="node">
<title>node15</title>
<polygon fill="lightblue" stroke="black" points="817.42,-1423.59 386.42,-1423.59 386.42,-1387.59 817.42,-1387.59 817.42,-1423.59"/>
<text text-anchor="middle" x="601.92" y="-1401.89" font-family="Times,serif" font-size="14.00">15: navigateAndPreparePage (Perform Explicit DD Check)</text>
</g>
<!-- node8&#45;&gt;node15 -->
<g id="edge14" class="edge">
<title>node8&#45;&gt;node15</title>
<path fill="none" stroke="gray" d="M642.97,-2047.54C660.44,-2042.81 674.66,-2036.9 680.92,-2029.59 720.32,-1983.53 717.74,-1827.15 669.92,-1771.59 646.99,-1744.96 614.76,-1781.13 592.92,-1753.59 584.63,-1743.15 592.16,-1736.9 592.92,-1723.59 594.92,-1688.53 601.92,-1680.21 601.92,-1645.09 601.92,-1645.09 601.92,-1645.09 601.92,-1491.59 601.92,-1472.34 601.92,-1450.65 601.92,-1433.99"/>
<polygon fill="gray" stroke="gray" points="605.42,-1433.85 601.92,-1423.85 598.42,-1433.85 605.42,-1433.85"/>
<text text-anchor="middle" x="648.92" y="-1734.89" font-family="Times,serif" font-size="14.00">No Stored Data</text>
</g>
<!-- node8&#45;&gt;node15 -->
<g id="edge15" class="edge">
<title>node8&#45;&gt;node15</title>
<path fill="none" stroke="gray" d="M642.01,-2047.52C664.34,-2042.6 683.6,-2036.62 692.92,-2029.59 718.95,-2009.97 726.92,-1997.19 726.92,-1964.59 726.92,-1964.59 726.92,-1964.59 726.92,-1491.59 726.92,-1461.04 701.08,-1440.7 672.89,-1427.6"/>
<polygon fill="gray" stroke="gray" points="674.25,-1424.38 663.69,-1423.6 671.46,-1430.8 674.25,-1424.38"/>
<text text-anchor="middle" x="793.42" y="-1742.39" font-family="Times,serif" font-size="14.00">Stored XPath Only</text>
<text text-anchor="middle" x="793.42" y="-1727.39" font-family="Times,serif" font-size="14.00">BUT DD Needed</text>
</g>
<!-- node10 -->
<g id="node11" class="node">
<title>node10</title>
<polygon fill="lightblue" stroke="black" points="654.42,-1894.59 377.42,-1894.59 377.42,-1858.59 654.42,-1858.59 654.42,-1894.59"/>
<text text-anchor="middle" x="515.92" y="-1872.89" font-family="Times,serif" font-size="14.00">10: Get HTML Content (Pre&#45;Extract)</text>
</g>
<!-- node9&#45;&gt;node10 -->
<g id="edge16" class="edge">
<title>node9&#45;&gt;node10</title>
<path fill="none" stroke="gray" d="M484.81,-1945.39C490.26,-1933.52 497.6,-1917.52 503.78,-1904.04"/>
<polygon fill="gray" stroke="gray" points="507.05,-1905.32 508.04,-1894.77 500.69,-1902.4 507.05,-1905.32"/>
<text text-anchor="middle" x="525.42" y="-1916.39" font-family="Times,serif" font-size="14.00">Nav OK</text>
</g>
<!-- node14 -->
<g id="node15" class="node">
<title>node14</title>
<polygon fill="salmon" stroke="black" points="582.92,-1618.59 352.92,-1618.59 352.92,-1582.59 582.92,-1582.59 582.92,-1618.59"/>
<text text-anchor="middle" x="467.92" y="-1596.89" font-family="Times,serif" font-size="14.00">14: Extraction Failed (Stored)</text>
</g>
<!-- node9&#45;&gt;node14 -->
<g id="edge17" class="edge">
<title>node9&#45;&gt;node14</title>
<path fill="none" stroke="gray" d="M575.01,-1945.58C631.55,-1930.67 687.23,-1904.04 663.92,-1858.59 646.19,-1824.02 616.47,-1838.49 592.92,-1807.59 577.4,-1787.24 578.29,-1778.61 572.92,-1753.59 561.98,-1702.63 596.31,-1678.2 564.92,-1636.59 561.33,-1631.83 557.03,-1627.72 552.27,-1624.16"/>
<polygon fill="gray" stroke="gray" points="554.15,-1621.21 543.86,-1618.69 550.33,-1627.08 554.15,-1621.21"/>
<text text-anchor="middle" x="631.42" y="-1785.89" font-family="Times,serif" font-size="14.00">Nav Failed</text>
</g>
<!-- node11 -->
<g id="node12" class="node">
<title>node11</title>
<polygon fill="lightyellow" stroke="black" points="484.92,-1807.59 260.92,-1807.59 260.92,-1771.59 484.92,-1771.59 484.92,-1807.59"/>
<text text-anchor="middle" x="372.92" y="-1785.89" font-family="Times,serif" font-size="14.00">11: Save HTML (Pre&#45;Extract)</text>
</g>
<!-- node10&#45;&gt;node11 -->
<g id="edge18" class="edge">
<title>node10&#45;&gt;node11</title>
<path fill="none" stroke="gray" d="M464.15,-1858.59C451.85,-1853.59 439.08,-1847.56 427.92,-1840.59 416.46,-1833.44 405.18,-1823.77 395.84,-1814.85"/>
<polygon fill="gray" stroke="gray" points="398.07,-1812.13 388.49,-1807.6 393.15,-1817.11 398.07,-1812.13"/>
<text text-anchor="middle" x="463.42" y="-1829.39" font-family="Times,serif" font-size="14.00">HTML OK</text>
</g>
<!-- node10&#45;&gt;node14 -->
<g id="edge19" class="edge">
<title>node10&#45;&gt;node14</title>
<path fill="none" stroke="gray" d="M511.96,-1858.49C503.48,-1821.06 484.98,-1734.32 492.92,-1723.59 509.23,-1701.56 534.61,-1726.85 551.92,-1705.59 571.34,-1681.75 574.23,-1662 556.92,-1636.59 553.76,-1631.96 549.89,-1627.94 545.55,-1624.46"/>
<polygon fill="gray" stroke="gray" points="547.5,-1621.54 537.28,-1618.74 543.52,-1627.3 547.5,-1621.54"/>
<text text-anchor="middle" x="527.92" y="-1734.89" font-family="Times,serif" font-size="14.00">No HTML</text>
</g>
<!-- node12 -->
<g id="node13" class="node">
<title>node12</title>
<polygon fill="lightblue" stroke="black" points="542.42,-1705.59 261.42,-1705.59 261.42,-1669.59 542.42,-1669.59 542.42,-1705.59"/>
<text text-anchor="middle" x="401.92" y="-1683.89" font-family="Times,serif" font-size="14.00">12: Extract HTML with Stored XPath</text>
</g>
<!-- node11&#45;&gt;node12 -->
<g id="edge20" class="edge">
<title>node11&#45;&gt;node12</title>
<path fill="none" stroke="gray" d="M377.97,-1771.17C382.42,-1755.83 388.97,-1733.24 394.1,-1715.56"/>
<polygon fill="gray" stroke="gray" points="397.5,-1716.39 396.93,-1705.81 390.78,-1714.44 397.5,-1716.39"/>
</g>
<!-- node13 -->
<g id="node14" class="node">
<title>node13</title>
<polygon fill="lightgreen" stroke="black" points="502.92,-1564.59 240.92,-1564.59 240.92,-1528.59 502.92,-1528.59 502.92,-1564.59"/>
<text text-anchor="middle" x="371.92" y="-1542.89" font-family="Times,serif" font-size="14.00">13: Extraction Successful (Stored)</text>
</g>
<!-- node12&#45;&gt;node13 -->
<g id="edge21" class="edge">
<title>node12&#45;&gt;node13</title>
<path fill="none" stroke="gray" d="M335.27,-1669.35C327.66,-1664.76 320.87,-1658.95 315.92,-1651.59 298.41,-1625.56 321.82,-1593.51 343.5,-1571.92"/>
<polygon fill="gray" stroke="gray" points="346.2,-1574.18 351.02,-1564.75 341.37,-1569.12 346.2,-1574.18"/>
<text text-anchor="middle" x="366.92" y="-1640.39" font-family="Times,serif" font-size="14.00">Extraction OK</text>
</g>
<!-- node12&#45;&gt;node14 -->
<g id="edge22" class="edge">
<title>node12&#45;&gt;node14</title>
<path fill="none" stroke="gray" d="M411.33,-1669.28C417.05,-1659.34 424.8,-1646.84 432.92,-1636.59 435.76,-1633.01 438.93,-1629.41 442.17,-1625.94"/>
<polygon fill="gray" stroke="gray" points="444.8,-1628.26 449.28,-1618.65 439.79,-1623.37 444.8,-1628.26"/>
<text text-anchor="middle" x="494.92" y="-1640.39" font-family="Times,serif" font-size="14.00">Extraction Failed</text>
</g>
<!-- node31 -->
<g id="node32" class="node">
<title>node31</title>
<polygon fill="lightblue" stroke="black" points="414.42,-247.59 241.42,-247.59 241.42,-211.59 414.42,-211.59 414.42,-247.59"/>
<text text-anchor="middle" x="327.92" y="-225.89" font-family="Times,serif" font-size="14.00">31: cleanupPuppeteer</text>
</g>
<!-- node13&#45;&gt;node31 -->
<g id="edge23" class="edge">
<title>node13&#45;&gt;node31</title>
<path fill="none" stroke="gray" d="M289.49,-1528.49C279.71,-1523.88 270.53,-1518.02 262.92,-1510.59 242.56,-1490.7 241.92,-1478.55 241.92,-1450.09 241.92,-1450.09 241.92,-1450.09 241.92,-301.59 241.92,-280.38 257.67,-264.32 275.7,-252.88"/>
<polygon fill="gray" stroke="gray" points="277.8,-255.71 284.67,-247.64 274.27,-249.66 277.8,-255.71"/>
</g>
<!-- node14&#45;&gt;node30 -->
<g id="edge25" class="edge">
<title>node14&#45;&gt;node30</title>
<path fill="none" stroke="gray" d="M496.26,-1582.57C502.17,-1577.57 507.61,-1571.55 510.92,-1564.59 517.79,-1550.14 520.66,-1541.28 510.92,-1528.59 506.58,-1522.94 496.96,-1518 484.8,-1513.76"/>
<polygon fill="gray" stroke="gray" points="485.65,-1510.35 475.06,-1510.65 483.52,-1517.02 485.65,-1510.35"/>
</g>
<!-- node16 -->
<g id="node17" class="node">
<title>node16</title>
<polygon fill="lightblue" stroke="black" points="681.42,-1336.59 346.42,-1336.59 346.42,-1300.59 681.42,-1300.59 681.42,-1336.59"/>
<text text-anchor="middle" x="513.92" y="-1314.89" font-family="Times,serif" font-size="14.00">16: Handle DataDome (if needed/configured)</text>
</g>
<!-- node15&#45;&gt;node16 -->
<g id="edge27" class="edge">
<title>node15&#45;&gt;node16</title>
<path fill="none" stroke="gray" d="M584.11,-1387.39C571.23,-1374.95 553.64,-1357.96 539.29,-1344.1"/>
<polygon fill="gray" stroke="gray" points="541.33,-1341.2 531.7,-1336.77 536.46,-1346.23 541.33,-1341.2"/>
<text text-anchor="middle" x="590.42" y="-1358.39" font-family="Times,serif" font-size="14.00">Nav OK</text>
</g>
<!-- node29 -->
<g id="node30" class="node">
<title>node29</title>
<polygon fill="salmon" stroke="black" points="557.92,-320.59 315.92,-320.59 315.92,-284.59 557.92,-284.59 557.92,-320.59"/>
<text text-anchor="middle" x="436.92" y="-298.89" font-family="Times,serif" font-size="14.00">29: Discovery/Extraction Failed</text>
</g>
<!-- node15&#45;&gt;node29 -->
<g id="edge28" class="edge">
<title>node15&#45;&gt;node29</title>
<path fill="none" stroke="gray" d="M720.12,-1387.59C754.47,-1375.49 782.92,-1354.83 782.92,-1319.59 782.92,-1319.59 782.92,-1319.59 782.92,-910.59 782.92,-847.86 834.58,-848.27 853.92,-788.59 860.8,-767.35 858.92,-760.92 858.92,-738.59 858.92,-738.59 858.92,-738.59 858.92,-388.59 858.92,-378.49 828.27,-346.84 809.92,-338.59 763.03,-317.53 634.75,-325.2 568.13,-320.51"/>
<polygon fill="gray" stroke="gray" points="568.25,-317.01 557.99,-319.65 567.66,-323.99 568.25,-317.01"/>
<text text-anchor="middle" x="837.42" y="-864.39" font-family="Times,serif" font-size="14.00">Nav Failed</text>
</g>
<!-- node17 -->
<g id="node18" class="node">
<title>node17</title>
<polygon fill="lightblue" stroke="black" points="763.42,-1249.59 522.42,-1249.59 522.42,-1213.59 763.42,-1213.59 763.42,-1249.59"/>
<text text-anchor="middle" x="642.92" y="-1227.89" font-family="Times,serif" font-size="14.00">17: Solve CAPTCHA (2Captcha)</text>
</g>
<!-- node16&#45;&gt;node17 -->
<g id="edge29" class="edge">
<title>node16&#45;&gt;node17</title>
<path fill="none" stroke="gray" d="M540.02,-1300.39C559.7,-1287.43 586.86,-1269.53 608.33,-1255.38"/>
<polygon fill="gray" stroke="gray" points="610.43,-1258.19 616.85,-1249.77 606.58,-1252.35 610.43,-1258.19"/>
<text text-anchor="middle" x="656.42" y="-1271.39" font-family="Times,serif" font-size="14.00">CAPTCHA Detected</text>
</g>
<!-- node19 -->
<g id="node20" class="node">
<title>node19</title>
<polygon fill="lightblue" stroke="black" points="739.42,-1089.59 420.42,-1089.59 420.42,-1053.59 739.42,-1053.59 739.42,-1089.59"/>
<text text-anchor="middle" x="579.92" y="-1067.89" font-family="Times,serif" font-size="14.00">19: Get HTML Content (for LLM/Snippets)</text>
</g>
<!-- node16&#45;&gt;node19 -->
<g id="edge30" class="edge">
<title>node16&#45;&gt;node19</title>
<path fill="none" stroke="gray" d="M504.14,-1300.49C490.6,-1274.76 468.7,-1224.42 476.92,-1180.59 481.67,-1155.28 481.73,-1146.62 497.92,-1126.59 508.03,-1114.08 521.82,-1103.46 535.21,-1095.03"/>
<polygon fill="gray" stroke="gray" points="537.13,-1097.96 543.91,-1089.82 533.53,-1091.96 537.13,-1097.96"/>
<text text-anchor="middle" x="561.92" y="-1184.39" font-family="Times,serif" font-size="14.00">No CAPTCHA / Handled</text>
</g>
<!-- node16&#45;&gt;node29 -->
<g id="edge31" class="edge">
<title>node16&#45;&gt;node29</title>
<path fill="none" stroke="gray" d="M379.28,-1300.55C345.63,-1288.32 318.92,-1267.58 318.92,-1232.59 318.92,-1232.59 318.92,-1232.59 318.92,-867.09 318.92,-732.44 301.92,-699.25 301.92,-564.59 301.92,-564.59 301.92,-564.59 301.92,-388.59 301.92,-357.6 327.71,-337.46 356.74,-324.61"/>
<polygon fill="gray" stroke="gray" points="358.35,-327.74 366.26,-320.69 355.68,-321.27 358.35,-327.74"/>
<text text-anchor="middle" x="412.92" y="-820.89" font-family="Times,serif" font-size="14.00">CAPTCHA Handling Failed</text>
</g>
<!-- node18 -->
<g id="node19" class="node">
<title>node18</title>
<polygon fill="lightblue" stroke="black" points="707.42,-1162.59 506.42,-1162.59 506.42,-1126.59 707.42,-1126.59 707.42,-1162.59"/>
<text text-anchor="middle" x="606.92" y="-1140.89" font-family="Times,serif" font-size="14.00">18: Update Stored Cookie</text>
</g>
<!-- node17&#45;&gt;node18 -->
<g id="edge32" class="edge">
<title>node17&#45;&gt;node18</title>
<path fill="none" stroke="gray" d="M650.59,-1213.19C653.81,-1203.23 655.81,-1190.73 650.92,-1180.59 649.06,-1176.73 646.54,-1173.17 643.65,-1169.91"/>
<polygon fill="gray" stroke="gray" points="645.98,-1167.3 636.36,-1162.88 641.13,-1172.34 645.98,-1167.3"/>
<text text-anchor="middle" x="677.42" y="-1184.39" font-family="Times,serif" font-size="14.00">Solved</text>
</g>
<!-- node17&#45;&gt;node29 -->
<g id="edge33" class="edge">
<title>node17&#45;&gt;node29</title>
<path fill="none" stroke="gray" d="M697.52,-1213.58C727.61,-1200.44 758.92,-1178.8 758.92,-1145.59 758.92,-1145.59 758.92,-1145.59 758.92,-910.59 758.92,-888.26 754.64,-880.91 763.92,-860.59 768.49,-850.58 776.85,-852.82 780.92,-842.59 786.83,-827.72 786.37,-821.64 780.92,-806.59 777.37,-796.8 769.46,-798.38 765.92,-788.59 763.65,-782.32 763.6,-779.84 765.92,-773.59 780.62,-734 812.03,-740.72 827.92,-701.59 858.17,-627.13 838.92,-601.46 838.92,-521.09 838.92,-521.09 838.92,-521.09 838.92,-388.59 838.92,-357.79 818.75,-351.8 790.92,-338.59 748.27,-318.36 630.46,-324.98 568.21,-320.52"/>
<polygon fill="gray" stroke="gray" points="568.26,-317.01 557.99,-319.63 567.65,-323.98 568.26,-317.01"/>
<text text-anchor="middle" x="809.92" y="-777.39" font-family="Times,serif" font-size="14.00">Solve Failed</text>
</g>
<!-- node18&#45;&gt;node19 -->
<g id="edge34" class="edge">
<title>node18&#45;&gt;node19</title>
<path fill="none" stroke="gray" d="M600.38,-1126.4C597.27,-1118.21 593.47,-1108.21 589.99,-1099.08"/>
<polygon fill="gray" stroke="gray" points="593.22,-1097.72 586.4,-1089.62 586.68,-1100.21 593.22,-1097.72"/>
</g>
<!-- node20 -->
<g id="node21" class="node">
<title>node20</title>
<polygon fill="lightblue" stroke="black" points="661.92,-1002.59 497.92,-1002.59 497.92,-966.59 661.92,-966.59 661.92,-1002.59"/>
<text text-anchor="middle" x="579.92" y="-980.89" font-family="Times,serif" font-size="14.00">20: Extract Snippets</text>
</g>
<!-- node19&#45;&gt;node20 -->
<g id="edge35" class="edge">
<title>node19&#45;&gt;node20</title>
<path fill="none" stroke="gray" d="M579.92,-1053.39C579.92,-1041.75 579.92,-1026.14 579.92,-1012.83"/>
<polygon fill="gray" stroke="gray" points="583.42,-1012.77 579.92,-1002.77 576.42,-1012.77 583.42,-1012.77"/>
<text text-anchor="middle" x="615.42" y="-1024.39" font-family="Times,serif" font-size="14.00">HTML OK</text>
</g>
<!-- node19&#45;&gt;node29 -->
<g id="edge36" class="edge">
<title>node19&#45;&gt;node29</title>
<path fill="none" stroke="gray" d="M628.3,-1053.42C637.81,-1048.62 647.22,-1042.71 654.92,-1035.59 720.53,-974.92 697.98,-930.28 753.92,-860.59 761.41,-851.27 769.05,-853.52 773.92,-842.59 780.43,-827.98 781.59,-820.64 773.92,-806.59 766.83,-793.61 753.01,-801.58 745.92,-788.59 741.28,-780.09 739.19,-748.31 757.92,-686.59 772.98,-636.95 797.29,-632.15 808.92,-581.59 819.38,-536.11 838.76,-407.47 808.92,-371.59 780.89,-337.88 753.66,-367.01 711.92,-353.59 696.97,-348.79 694.97,-343.09 679.92,-338.59 668.34,-335.13 619.31,-327.86 568.29,-320.84"/>
<polygon fill="gray" stroke="gray" points="568.45,-317.33 558.07,-319.44 567.5,-324.27 568.45,-317.33"/>
<text text-anchor="middle" x="792.92" y="-690.39" font-family="Times,serif" font-size="14.00">No HTML</text>
</g>
<!-- node21 -->
<g id="node22" class="node">
<title>node21</title>
<polygon fill="lightblue" stroke="black" points="698.42,-929.59 461.42,-929.59 461.42,-893.59 698.42,-893.59 698.42,-929.59"/>
<text text-anchor="middle" x="579.92" y="-907.89" font-family="Times,serif" font-size="14.00">21: Get LLM Candidate XPaths</text>
</g>
<!-- node20&#45;&gt;node21 -->
<g id="edge37" class="edge">
<title>node20&#45;&gt;node21</title>
<path fill="none" stroke="gray" d="M579.92,-966.4C579.92,-958.38 579.92,-948.64 579.92,-939.66"/>
<polygon fill="gray" stroke="gray" points="583.42,-939.62 579.92,-929.62 576.42,-939.62 583.42,-939.62"/>
</g>
<!-- node22 -->
<g id="node23" class="node">
<title>node22</title>
<polygon fill="lightblue" stroke="black" points="764.92,-842.59 546.92,-842.59 546.92,-806.59 764.92,-806.59 764.92,-842.59"/>
<text text-anchor="middle" x="655.92" y="-820.89" font-family="Times,serif" font-size="14.00">22: Validate &amp; Score XPaths</text>
</g>
<!-- node21&#45;&gt;node22 -->
<g id="edge38" class="edge">
<title>node21&#45;&gt;node22</title>
<path fill="none" stroke="gray" d="M595.3,-893.39C606.32,-881.06 621.34,-864.27 633.66,-850.48"/>
<polygon fill="gray" stroke="gray" points="636.51,-852.55 640.56,-842.77 631.29,-847.89 636.51,-852.55"/>
<text text-anchor="middle" x="662.42" y="-864.39" font-family="Times,serif" font-size="14.00">Candidates</text>
</g>
<!-- node21&#45;&gt;node29 -->
<g id="edge39" class="edge">
<title>node21&#45;&gt;node29</title>
<path fill="none" stroke="gray" d="M569.43,-893.37C553.86,-867.97 525.15,-821.84 512.92,-806.59 437.78,-712.96 369.16,-725.38 322.92,-614.59 306.91,-576.24 321.92,-562.65 321.92,-521.09 321.92,-521.09 321.92,-521.09 321.92,-388.59 321.92,-358.93 346.97,-338.43 373.7,-325.02"/>
<polygon fill="gray" stroke="gray" points="375.23,-328.16 382.79,-320.73 372.25,-321.83 375.23,-328.16"/>
<text text-anchor="middle" x="375.92" y="-603.39" font-family="Times,serif" font-size="14.00">No Candidates</text>
</g>
<!-- node23 -->
<g id="node24" class="node">
<title>node23</title>
<polygon fill="lightblue" stroke="black" points="711.42,-755.59 540.42,-755.59 540.42,-719.59 711.42,-719.59 711.42,-755.59"/>
<text text-anchor="middle" x="625.92" y="-733.89" font-family="Times,serif" font-size="14.00">23: Select Best XPath</text>
</g>
<!-- node22&#45;&gt;node23 -->
<g id="edge40" class="edge">
<title>node22&#45;&gt;node23</title>
<path fill="none" stroke="gray" d="M628.87,-806.35C623.23,-801.36 618.05,-795.39 614.92,-788.59 611.61,-781.41 611.93,-773.18 613.75,-765.49"/>
<polygon fill="gray" stroke="gray" points="617.13,-766.43 616.85,-755.84 610.46,-764.3 617.13,-766.43"/>
<text text-anchor="middle" x="675.42" y="-777.39" font-family="Times,serif" font-size="14.00">Valid Candidates</text>
</g>
<!-- node22&#45;&gt;node29 -->
<g id="edge41" class="edge">
<title>node22&#45;&gt;node29</title>
<path fill="none" stroke="gray" d="M612.88,-806.53C587.3,-794.89 555.38,-777.6 531.92,-755.59 472.03,-699.41 498.8,-648.61 432.92,-599.59 409.21,-581.95 388.63,-603.61 368.92,-581.59 350.74,-561.29 358.92,-548.35 358.92,-521.09 358.92,-521.09 358.92,-521.09 358.92,-388.59 358.92,-362.83 378.61,-341.5 398.21,-326.65"/>
<polygon fill="gray" stroke="gray" points="400.44,-329.35 406.54,-320.69 396.37,-323.66 400.44,-329.35"/>
<text text-anchor="middle" x="441.42" y="-559.89" font-family="Times,serif" font-size="14.00">No Valid Candidates</text>
</g>
<!-- node24 -->
<g id="node25" class="node">
<title>node24</title>
<polygon fill="lightblue" stroke="black" points="749.42,-668.59 554.42,-668.59 554.42,-632.59 749.42,-632.59 749.42,-668.59"/>
<text text-anchor="middle" x="651.92" y="-646.89" font-family="Times,serif" font-size="14.00">24: Update Stored XPath</text>
</g>
<!-- node23&#45;&gt;node24 -->
<g id="edge42" class="edge">
<title>node23&#45;&gt;node24</title>
<path fill="none" stroke="gray" d="M631.18,-719.39C634.78,-707.64 639.61,-691.83 643.71,-678.43"/>
<polygon fill="gray" stroke="gray" points="647.09,-679.35 646.67,-668.77 640.39,-677.31 647.09,-679.35"/>
</g>
<!-- node25 -->
<g id="node26" class="node">
<title>node25</title>
<polygon fill="lightblue" stroke="black" points="799.42,-581.59 522.42,-581.59 522.42,-545.59 799.42,-545.59 799.42,-581.59"/>
<text text-anchor="middle" x="660.92" y="-559.89" font-family="Times,serif" font-size="14.00">25: Get HTML Content (Pre&#45;Extract)</text>
</g>
<!-- node24&#45;&gt;node25 -->
<g id="edge43" class="edge">
<title>node24&#45;&gt;node25</title>
<path fill="none" stroke="gray" d="M653.74,-632.39C654.97,-620.75 656.63,-605.14 658.04,-591.83"/>
<polygon fill="gray" stroke="gray" points="661.53,-592.08 659.1,-581.77 654.57,-591.34 661.53,-592.08"/>
</g>
<!-- node26 -->
<g id="node27" class="node">
<title>node26</title>
<polygon fill="lightyellow" stroke="black" points="760.92,-494.59 536.92,-494.59 536.92,-458.59 760.92,-458.59 760.92,-494.59"/>
<text text-anchor="middle" x="648.92" y="-472.89" font-family="Times,serif" font-size="14.00">26: Save HTML (Pre&#45;Extract)</text>
</g>
<!-- node25&#45;&gt;node26 -->
<g id="edge44" class="edge">
<title>node25&#45;&gt;node26</title>
<path fill="none" stroke="gray" d="M658.49,-545.39C656.85,-533.75 654.64,-518.14 652.76,-504.83"/>
<polygon fill="gray" stroke="gray" points="656.21,-504.18 651.34,-494.77 649.28,-505.16 656.21,-504.18"/>
<text text-anchor="middle" x="690.42" y="-516.39" font-family="Times,serif" font-size="14.00">HTML OK</text>
</g>
<!-- node25&#45;&gt;node29 -->
<g id="edge45" class="edge">
<title>node25&#45;&gt;node29</title>
<path fill="none" stroke="gray" d="M611.73,-545.57C584.59,-534.32 551.67,-517.41 527.92,-494.59 479.67,-448.25 454.01,-371.16 443.22,-330.54"/>
<polygon fill="gray" stroke="gray" points="446.6,-329.63 440.74,-320.8 439.82,-331.36 446.6,-329.63"/>
<text text-anchor="middle" x="520.92" y="-429.39" font-family="Times,serif" font-size="14.00">No HTML</text>
</g>
<!-- node27 -->
<g id="node28" class="node">
<title>node27</title>
<polygon fill="lightblue" stroke="black" points="799.92,-407.59 487.92,-407.59 487.92,-371.59 799.92,-371.59 799.92,-407.59"/>
<text text-anchor="middle" x="643.92" y="-385.89" font-family="Times,serif" font-size="14.00">27: Extract HTML with Discovered XPath</text>
</g>
<!-- node26&#45;&gt;node27 -->
<g id="edge46" class="edge">
<title>node26&#45;&gt;node27</title>
<path fill="none" stroke="gray" d="M647.91,-458.39C647.22,-446.75 646.3,-431.14 645.52,-417.83"/>
<polygon fill="gray" stroke="gray" points="649.01,-417.54 644.93,-407.77 642.02,-417.96 649.01,-417.54"/>
</g>
<!-- node28 -->
<g id="node29" class="node">
<title>node28</title>
<polygon fill="lightgreen" stroke="black" points="859.92,-320.59 575.92,-320.59 575.92,-284.59 859.92,-284.59 859.92,-320.59"/>
<text text-anchor="middle" x="717.92" y="-298.89" font-family="Times,serif" font-size="14.00">28: Extraction Successful (Discovery)</text>
</g>
<!-- node27&#45;&gt;node28 -->
<g id="edge47" class="edge">
<title>node27&#45;&gt;node28</title>
<path fill="none" stroke="gray" d="M658.89,-371.39C669.63,-359.06 684.25,-342.27 696.25,-328.48"/>
<polygon fill="gray" stroke="gray" points="699.04,-330.61 702.97,-320.77 693.76,-326.01 699.04,-330.61"/>
<text text-anchor="middle" x="735.92" y="-342.39" font-family="Times,serif" font-size="14.00">Extraction OK</text>
</g>
<!-- node27&#45;&gt;node29 -->
<g id="edge48" class="edge">
<title>node27&#45;&gt;node29</title>
<path fill="none" stroke="gray" d="M602.03,-371.39C569.09,-357.87 523.07,-338.97 487.98,-324.56"/>
<polygon fill="gray" stroke="gray" points="488.97,-321.18 478.39,-320.62 486.31,-327.66 488.97,-321.18"/>
<text text-anchor="middle" x="613.92" y="-342.39" font-family="Times,serif" font-size="14.00">Extraction Failed</text>
</g>
<!-- node28&#45;&gt;node31 -->
<g id="edge49" class="edge">
<title>node28&#45;&gt;node31</title>
<path fill="none" stroke="gray" d="M624.5,-284.59C564.09,-273.59 485.64,-259.3 424.59,-248.19"/>
<polygon fill="gray" stroke="gray" points="425.03,-244.71 414.57,-246.37 423.78,-251.6 425.03,-244.71"/>
</g>
<!-- node29&#45;&gt;node30 -->
<g id="edge51" class="edge">
<title>node29&#45;&gt;node30</title>
<path fill="none" stroke="gray" d="M346.76,-320.74C312.66,-332.92 281.92,-353.6 281.92,-388.59 281.92,-1406.59 281.92,-1406.59 281.92,-1406.59 281.92,-1434.67 305.17,-1455.56 329.02,-1469.61"/>
<polygon fill="gray" stroke="gray" points="327.35,-1472.68 337.79,-1474.47 330.74,-1466.56 327.35,-1472.68"/>
</g>
<!-- node30&#45;&gt;node15 -->
<g id="edge26" class="edge">
<title>node30&#45;&gt;node15</title>
<path fill="none" stroke="gray" d="M385.84,-1474.58C390.61,-1463.45 398.43,-1449.54 409.92,-1441.59 418.84,-1435.42 435.31,-1430.15 454.99,-1425.71"/>
<polygon fill="gray" stroke="gray" points="455.84,-1429.1 464.89,-1423.59 454.38,-1422.26 455.84,-1429.1"/>
<text text-anchor="middle" x="503.42" y="-1445.39" font-family="Times,serif" font-size="14.00">Fallback to Discovery Nav</text>
</g>
<!-- node30&#45;&gt;node31 -->
<g id="edge9" class="edge">
<title>node30&#45;&gt;node31</title>
<path fill="none" stroke="gray" d="M315.92,-1474.54C284.29,-1461.48 252.92,-1439.92 252.92,-1406.59 252.92,-1406.59 252.92,-1406.59 252.92,-301.59 252.92,-282.1 266.43,-265.71 282.05,-253.61"/>
<polygon fill="gray" stroke="gray" points="284.26,-256.34 290.36,-247.68 280.19,-250.64 284.26,-256.34"/>
</g>
<!-- node30&#45;&gt;node31 -->
<g id="edge52" class="edge">
<title>node30&#45;&gt;node31</title>
<path fill="none" stroke="gray" d="M331.45,-1474.54C302.29,-1461.48 270.92,-1439.92 270.92,-1406.59 270.92,-1406.59 270.92,-1406.59 270.92,-301.59 270.92,-282.46 283.94,-266.32 297.62,-254.28"/>
<polygon fill="gray" stroke="gray" points="300.15,-256.73 305.66,-247.68 295.71,-251.32 300.15,-256.73"/>
</g>
<!-- node32 -->
<g id="node33" class="node">
<title>node32</title>
<polygon fill="lightgreen" stroke="black" points="714.8,-145.14 714.8,-160.05 621.14,-170.59 488.69,-170.59 395.04,-160.05 395.04,-145.14 488.69,-134.59 621.14,-134.59 714.8,-145.14"/>
<polygon fill="none" stroke="black" points="718.81,-141.56 718.81,-163.62 621.37,-174.59 488.47,-174.59 391.03,-163.62 391.03,-141.56 488.47,-130.59 621.37,-130.59 718.81,-141.56"/>
<text text-anchor="middle" x="554.92" y="-148.89" font-family="Times,serif" font-size="14.00">32: Return Success (Content)</text>
</g>
<!-- node31&#45;&gt;node32 -->
<g id="edge24" class="edge">
<title>node31&#45;&gt;node32</title>
<path fill="none" stroke="gray" d="M373.67,-211.57C403.07,-201.5 441.98,-188.58 476.23,-177.5"/>
<polygon fill="gray" stroke="gray" points="477.31,-180.82 485.76,-174.42 475.16,-174.16 477.31,-180.82"/>
</g>
<!-- node31&#45;&gt;node32 -->
<g id="edge50" class="edge">
<title>node31&#45;&gt;node32</title>
<path fill="none" stroke="gray" d="M385.19,-211.57C416.25,-201.66 454.78,-189 487.29,-178.04"/>
<polygon fill="gray" stroke="gray" points="488.83,-181.22 497.18,-174.7 486.58,-174.59 488.83,-181.22"/>
</g>
<!-- node33 -->
<g id="node34" class="node">
<title>node33</title>
<polygon fill="salmon" stroke="black" points="369.18,-145.14 369.18,-160.05 312.79,-170.59 233.05,-170.59 176.66,-160.05 176.66,-145.14 233.05,-134.59 312.79,-134.59 369.18,-145.14"/>
<polygon fill="none" stroke="black" points="373.18,-141.81 373.18,-163.37 313.16,-174.59 232.68,-174.59 172.66,-163.37 172.66,-141.81 232.68,-130.59 313.16,-130.59 373.18,-141.81"/>
<text text-anchor="middle" x="272.92" y="-148.89" font-family="Times,serif" font-size="14.00">33: Return Error</text>
</g>
<!-- node31&#45;&gt;node33 -->
<g id="edge10" class="edge">
<title>node31&#45;&gt;node33</title>
<path fill="none" stroke="gray" d="M309.68,-211.57C302.67,-203.23 294.83,-192.95 288.13,-183.36"/>
<polygon fill="gray" stroke="gray" points="290.86,-181.15 282.35,-174.84 285.06,-185.08 290.86,-181.15"/>
</g>
<!-- node31&#45;&gt;node33 -->
<g id="edge53" class="edge">
<title>node31&#45;&gt;node33</title>
<path fill="none" stroke="gray" d="M321.2,-211.57C315.88,-203.06 308.43,-192.53 300.92,-182.78"/>
<polygon fill="gray" stroke="gray" points="303.6,-180.51 294.65,-174.84 298.1,-184.85 303.6,-180.51"/>
</g>
<!-- node34 -->
<g id="node35" class="node">
<title>node34</title>
<ellipse fill="lightgreen" stroke="black" cx="554.92" cy="-46.8" rx="46.59" ry="46.59"/>
<text text-anchor="middle" x="554.92" y="-43.1" font-family="Times,serif" font-size="14.00">34: End</text>
</g>
<!-- node32&#45;&gt;node34 -->
<g id="edge55" class="edge">
<title>node32&#45;&gt;node34</title>
<path fill="none" stroke="gray" d="M554.92,-130.59C554.92,-122.67 554.92,-113.25 554.92,-103.65"/>
<polygon fill="gray" stroke="gray" points="558.42,-103.63 554.92,-93.63 551.42,-103.63 558.42,-103.63"/>
</g>
<!-- node33&#45;&gt;node35 -->
<g id="edge56" class="edge">
<title>node33&#45;&gt;node35</title>
<path fill="none" stroke="gray" d="M254.91,-130.59C245.14,-119.2 232.7,-104.69 220.97,-91.01"/>
<polygon fill="gray" stroke="gray" points="223.34,-88.39 214.17,-83.08 218.02,-92.95 223.34,-88.39"/>
</g>
</g>
</svg>
