<?xml version="1.0" encoding="UTF-8" standalone="no"?>
<!DOCTYPE svg PUBLIC "-//W3C//DTD SVG 1.1//EN"
 "http://www.w3.org/Graphics/SVG/1.1/DTD/svg11.dtd">
<!-- Generated by graphviz version 2.43.0 (0)
 -->
<!-- Title: UniversalScraper Pages: 1 -->
<svg width="1208pt" height="2535pt"
 viewBox="0.00 0.00 1208.00 2534.74" xmlns="http://www.w3.org/2000/svg" xmlns:xlink="http://www.w3.org/1999/xlink">
<g id="graph0" class="graph" transform="scale(1 1) rotate(0) translate(4 2530.74)">
<title>UniversalScraper</title>
<polygon fill="white" stroke="transparent" points="-4,4 -4,-2530.74 1204,-2530.74 1204,4 -4,4"/>
<g id="clust1" class="cluster">
<title>cluster_known_site</title>
<polygon fill="lightgrey" stroke="lightgrey" points="8,-1483 8,-2290 426,-2290 426,-1483 8,-1483"/>
<text text-anchor="middle" x="217" y="-2274.8" font-family="Times,serif" font-size="14.00">Known Site Processing</text>
</g>
<g id="clust2" class="cluster">
<title>cluster_unknown_site</title>
<polygon fill="beige" stroke="beige" points="434,-432 434,-1590 1192,-1590 1192,-432 434,-432"/>
<text text-anchor="middle" x="813" y="-1574.8" font-family="Times,serif" font-size="14.00">Unknown Site / Re&#45;Discovery</text>
</g>
<g id="clust3" class="cluster">
<title>cluster_initial_probe</title>
<polygon fill="beige" stroke="beige" points="442,-1079 442,-1559 910,-1559 910,-1079 442,-1079"/>
<text text-anchor="middle" x="676" y="-1543.8" font-family="Times,serif" font-size="14.00">Initial Probing</text>
</g>
<g id="clust4" class="cluster">
<title>cluster_smart_scraper</title>
<polygon fill="beige" stroke="beige" points="442,-518 442,-1060 858,-1060 858,-518 442,-518"/>
<text text-anchor="middle" x="650" y="-1044.8" font-family="Times,serif" font-size="14.00">SmartScraper: XPath Discovery</text>
</g>
<g id="clust5" class="cluster">
<title>cluster_extraction_unknown</title>
<polygon fill="lightblue" stroke="lightblue" points="737,-65 737,-413 1145,-413 1145,-65 737,-65"/>
<text text-anchor="middle" x="941" y="-397.8" font-family="Times,serif" font-size="14.00">Content Extraction (Post&#45;Discovery)</text>
</g>
<!-- start -->
<g id="node1" class="node">
<title>start</title>
<ellipse fill="none" stroke="black" cx="433" cy="-2499.87" rx="115.93" ry="26.74"/>
<text text-anchor="middle" x="433" y="-2503.67" font-family="Times,serif" font-size="14.00">Start</text>
<text text-anchor="middle" x="433" y="-2488.67" font-family="Times,serif" font-size="14.00">(URL, Request Args)</text>
</g>
<!-- proxy_ua_setup -->
<g id="node2" class="node">
<title>proxy_ua_setup</title>
<path fill="none" stroke="black" d="M524.5,-2436C524.5,-2436 341.5,-2436 341.5,-2436 335.5,-2436 329.5,-2430 329.5,-2424 329.5,-2424 329.5,-2412 329.5,-2412 329.5,-2406 335.5,-2400 341.5,-2400 341.5,-2400 524.5,-2400 524.5,-2400 530.5,-2400 536.5,-2406 536.5,-2412 536.5,-2412 536.5,-2424 536.5,-2424 536.5,-2430 530.5,-2436 524.5,-2436"/>
<text text-anchor="middle" x="433" y="-2414.3" font-family="Times,serif" font-size="14.00">Setup Proxy &amp; User&#45;Agent</text>
</g>
<!-- start&#45;&gt;proxy_ua_setup -->
<g id="edge1" class="edge">
<title>start&#45;&gt;proxy_ua_setup</title>
<path fill="none" stroke="black" d="M433,-2472.72C433,-2464.27 433,-2454.89 433,-2446.36"/>
<polygon fill="black" stroke="black" points="436.5,-2446.15 433,-2436.15 429.5,-2446.15 436.5,-2446.15"/>
</g>
<!-- check_known_site -->
<g id="node3" class="node">
<title>check_known_site</title>
<path fill="none" stroke="black" d="M421.06,-2361.83C421.06,-2361.83 260.44,-2346.17 260.44,-2346.17 254.47,-2345.58 254.47,-2344.42 260.44,-2343.83 260.44,-2343.83 421.06,-2328.17 421.06,-2328.17 427.03,-2327.58 438.97,-2327.58 444.94,-2328.17 444.94,-2328.17 605.56,-2343.83 605.56,-2343.83 611.53,-2344.42 611.53,-2345.58 605.56,-2346.17 605.56,-2346.17 444.94,-2361.83 444.94,-2361.83 438.97,-2362.42 427.03,-2362.42 421.06,-2361.83"/>
<text text-anchor="middle" x="433" y="-2341.3" font-family="Times,serif" font-size="14.00">URL in KnownSitesTable?</text>
</g>
<!-- proxy_ua_setup&#45;&gt;check_known_site -->
<g id="edge2" class="edge">
<title>proxy_ua_setup&#45;&gt;check_known_site</title>
<path fill="none" stroke="black" d="M433,-2399.81C433,-2391.79 433,-2382.05 433,-2373.07"/>
<polygon fill="black" stroke="black" points="436.5,-2373.03 433,-2363.03 429.5,-2373.03 436.5,-2373.03"/>
</g>
<!-- retrieve_config -->
<g id="node4" class="node">
<title>retrieve_config</title>
<path fill="none" stroke="black" d="M400.5,-2259C400.5,-2259 143.5,-2259 143.5,-2259 137.5,-2259 131.5,-2253 131.5,-2247 131.5,-2247 131.5,-2233 131.5,-2233 131.5,-2227 137.5,-2221 143.5,-2221 143.5,-2221 400.5,-2221 400.5,-2221 406.5,-2221 412.5,-2227 412.5,-2233 412.5,-2233 412.5,-2247 412.5,-2247 412.5,-2253 406.5,-2259 400.5,-2259"/>
<text text-anchor="middle" x="272" y="-2243.8" font-family="Times,serif" font-size="14.00">Retrieve Stored Config</text>
<text text-anchor="middle" x="272" y="-2228.8" font-family="Times,serif" font-size="14.00">(Method, XPath, NeedsCaptcha, etc.)</text>
</g>
<!-- check_known_site&#45;&gt;retrieve_config -->
<g id="edge3" class="edge">
<title>check_known_site&#45;&gt;retrieve_config</title>
<path fill="none" stroke="black" d="M409.93,-2329.24C383.58,-2312.38 340.09,-2284.56 308.99,-2264.67"/>
<polygon fill="black" stroke="black" points="310.48,-2261.46 300.17,-2259.02 306.71,-2267.36 310.48,-2261.46"/>
<text text-anchor="middle" x="385" y="-2301" font-family="Times,serif" font-size="10.00">Yes</text>
</g>
<!-- probe_curl -->
<g id="node13" class="node">
<title>probe_curl</title>
<path fill="none" stroke="black" d="M602.5,-1528C602.5,-1528 507.5,-1528 507.5,-1528 501.5,-1528 495.5,-1522 495.5,-1516 495.5,-1516 495.5,-1504 495.5,-1504 495.5,-1498 501.5,-1492 507.5,-1492 507.5,-1492 602.5,-1492 602.5,-1492 608.5,-1492 614.5,-1498 614.5,-1504 614.5,-1504 614.5,-1516 614.5,-1516 614.5,-1522 608.5,-1528 602.5,-1528"/>
<text text-anchor="middle" x="555" y="-1506.3" font-family="Times,serif" font-size="14.00">Attempt cURL</text>
</g>
<!-- check_known_site&#45;&gt;probe_curl -->
<g id="edge16" class="edge">
<title>check_known_site&#45;&gt;probe_curl</title>
<path fill="none" stroke="black" d="M492.35,-2332.71C540.35,-2319.73 600,-2293.12 600,-2241 600,-2241 600,-2241 600,-1645 600,-1605.88 582.55,-1563.51 569.38,-1537.12"/>
<polygon fill="black" stroke="black" points="572.45,-1535.44 564.76,-1528.15 566.23,-1538.65 572.45,-1535.44"/>
<text text-anchor="middle" x="648.5" y="-1916.5" font-family="Times,serif" font-size="10.00">No (Unknown Site)</text>
</g>
<!-- is_config_stale -->
<g id="node5" class="node">
<title>is_config_stale</title>
<path fill="none" stroke="black" d="M245.32,-2181.24C245.32,-2181.24 107.68,-2148.76 107.68,-2148.76 101.84,-2147.38 101.84,-2144.62 107.68,-2143.24 107.68,-2143.24 245.32,-2110.76 245.32,-2110.76 251.16,-2109.38 262.84,-2109.38 268.68,-2110.76 268.68,-2110.76 406.32,-2143.24 406.32,-2143.24 412.16,-2144.62 412.16,-2147.38 406.32,-2148.76 406.32,-2148.76 268.68,-2181.24 268.68,-2181.24 262.84,-2182.62 251.16,-2182.62 245.32,-2181.24"/>
<text text-anchor="middle" x="257" y="-2149.8" font-family="Times,serif" font-size="14.00">Config Stale or</text>
<text text-anchor="middle" x="257" y="-2134.8" font-family="Times,serif" font-size="14.00">High Failure Count?</text>
</g>
<!-- retrieve_config&#45;&gt;is_config_stale -->
<g id="edge4" class="edge">
<title>retrieve_config&#45;&gt;is_config_stale</title>
<path fill="none" stroke="black" d="M269.04,-2220.82C267.7,-2212.65 266.07,-2202.61 264.43,-2192.59"/>
<polygon fill="black" stroke="black" points="267.88,-2191.96 262.81,-2182.65 260.97,-2193.08 267.88,-2191.96"/>
</g>
<!-- known_site_captcha_check -->
<g id="node6" class="node">
<title>known_site_captcha_check</title>
<path fill="none" stroke="black" d="M211.22,-2058.7C211.22,-2058.7 39.78,-2025.3 39.78,-2025.3 33.89,-2024.15 33.89,-2021.85 39.78,-2020.7 39.78,-2020.7 211.22,-1987.3 211.22,-1987.3 217.11,-1986.15 228.89,-1986.15 234.78,-1987.3 234.78,-1987.3 406.22,-2020.7 406.22,-2020.7 412.11,-2021.85 412.11,-2024.15 406.22,-2025.3 406.22,-2025.3 234.78,-2058.7 234.78,-2058.7 228.89,-2059.85 217.11,-2059.85 211.22,-2058.7"/>
<text text-anchor="middle" x="223" y="-2026.8" font-family="Times,serif" font-size="14.00">Stored Config Indicates</text>
<text text-anchor="middle" x="223" y="-2011.8" font-family="Times,serif" font-size="14.00">Needs CAPTCHA Solver?</text>
</g>
<!-- is_config_stale&#45;&gt;known_site_captcha_check -->
<g id="edge5" class="edge">
<title>is_config_stale&#45;&gt;known_site_captcha_check</title>
<path fill="none" stroke="black" d="M247.17,-2110C243.57,-2097.2 239.45,-2082.53 235.64,-2068.97"/>
<polygon fill="black" stroke="black" points="239,-2068.02 232.93,-2059.34 232.27,-2069.91 239,-2068.02"/>
<text text-anchor="middle" x="280.5" y="-2082" font-family="Times,serif" font-size="10.00">No (Config OK)</text>
</g>
<!-- is_config_stale&#45;&gt;probe_curl -->
<g id="edge15" class="edge">
<title>is_config_stale&#45;&gt;probe_curl</title>
<path fill="none" stroke="black" d="M337.43,-2126.85C388.87,-2109.95 446,-2078.84 446,-2024 446,-2024 446,-2024 446,-1645 446,-1597.65 487.46,-1557.74 519.24,-1534.09"/>
<polygon fill="black" stroke="black" points="521.42,-1536.84 527.49,-1528.15 517.33,-1531.16 521.42,-1536.84"/>
<text text-anchor="middle" x="509" y="-1841.5" font-family="Times,serif" font-size="10.00">Yes (Stale/High Failures)</text>
</g>
<!-- known_site_solve_captcha -->
<g id="node7" class="node">
<title>known_site_solve_captcha</title>
<path fill="none" stroke="black" d="M270.5,-1938C270.5,-1938 49.5,-1938 49.5,-1938 43.5,-1938 37.5,-1932 37.5,-1926 37.5,-1926 37.5,-1912 37.5,-1912 37.5,-1906 43.5,-1900 49.5,-1900 49.5,-1900 270.5,-1900 270.5,-1900 276.5,-1900 282.5,-1906 282.5,-1912 282.5,-1912 282.5,-1926 282.5,-1926 282.5,-1932 276.5,-1938 270.5,-1938"/>
<text text-anchor="middle" x="160" y="-1922.8" font-family="Times,serif" font-size="14.00">Integrate with CAPTCHA Solver</text>
<text text-anchor="middle" x="160" y="-1907.8" font-family="Times,serif" font-size="14.00">(Based on Stored Config)</text>
</g>
<!-- known_site_captcha_check&#45;&gt;known_site_solve_captcha -->
<g id="edge6" class="edge">
<title>known_site_captcha_check&#45;&gt;known_site_solve_captcha</title>
<path fill="none" stroke="black" d="M202.55,-1988.88C194.16,-1975.31 184.58,-1959.8 176.64,-1946.94"/>
<polygon fill="black" stroke="black" points="179.42,-1944.77 171.18,-1938.11 173.46,-1948.45 179.42,-1944.77"/>
<text text-anchor="middle" x="196" y="-1959" font-family="Times,serif" font-size="10.00">Yes</text>
</g>
<!-- execute_stored_method -->
<g id="node8" class="node">
<title>execute_stored_method</title>
<path fill="none" stroke="black" d="M315,-1863C315,-1863 153,-1863 153,-1863 147,-1863 141,-1857 141,-1851 141,-1851 141,-1837 141,-1837 141,-1831 147,-1825 153,-1825 153,-1825 315,-1825 315,-1825 321,-1825 327,-1831 327,-1837 327,-1837 327,-1851 327,-1851 327,-1857 321,-1863 315,-1863"/>
<text text-anchor="middle" x="234" y="-1847.8" font-family="Times,serif" font-size="14.00">Execute Stored Method</text>
<text text-anchor="middle" x="234" y="-1832.8" font-family="Times,serif" font-size="14.00">(cURL/Puppeteer)</text>
</g>
<!-- known_site_captcha_check&#45;&gt;execute_stored_method -->
<g id="edge8" class="edge">
<title>known_site_captcha_check&#45;&gt;execute_stored_method</title>
<path fill="none" stroke="black" d="M256.81,-1991.45C270.52,-1976.8 284.81,-1958.08 292,-1938 297.69,-1922.1 298.67,-1915.52 292,-1900 287.03,-1888.45 278.31,-1878.18 269.12,-1869.74"/>
<polygon fill="black" stroke="black" points="271.23,-1866.94 261.36,-1863.09 266.68,-1872.25 271.23,-1866.94"/>
<text text-anchor="middle" x="304" y="-1916.5" font-family="Times,serif" font-size="10.00">No</text>
</g>
<!-- known_site_solve_captcha&#45;&gt;execute_stored_method -->
<g id="edge7" class="edge">
<title>known_site_solve_captcha&#45;&gt;execute_stored_method</title>
<path fill="none" stroke="black" d="M178.29,-1899.96C187.36,-1891.01 198.47,-1880.05 208.38,-1870.28"/>
<polygon fill="black" stroke="black" points="211,-1872.6 215.66,-1863.09 206.08,-1867.62 211,-1872.6"/>
</g>
<!-- validate_stored_xpath -->
<g id="node9" class="node">
<title>validate_stored_xpath</title>
<path fill="none" stroke="black" d="M222.28,-1785.43C222.28,-1785.43 72.72,-1752.57 72.72,-1752.57 66.86,-1751.29 66.86,-1748.71 72.72,-1747.43 72.72,-1747.43 222.28,-1714.57 222.28,-1714.57 228.14,-1713.29 239.86,-1713.29 245.72,-1714.57 245.72,-1714.57 395.28,-1747.43 395.28,-1747.43 401.14,-1748.71 401.14,-1751.29 395.28,-1752.57 395.28,-1752.57 245.72,-1785.43 245.72,-1785.43 239.86,-1786.71 228.14,-1786.71 222.28,-1785.43"/>
<text text-anchor="middle" x="234" y="-1753.8" font-family="Times,serif" font-size="14.00">Validate Stored XPath</text>
<text text-anchor="middle" x="234" y="-1738.8" font-family="Times,serif" font-size="14.00">(Exists? Not Empty?)</text>
</g>
<!-- execute_stored_method&#45;&gt;validate_stored_xpath -->
<g id="edge9" class="edge">
<title>execute_stored_method&#45;&gt;validate_stored_xpath</title>
<path fill="none" stroke="black" d="M234,-1824.82C234,-1817.13 234,-1807.78 234,-1798.35"/>
<polygon fill="black" stroke="black" points="237.5,-1798.16 234,-1788.16 230.5,-1798.16 237.5,-1798.16"/>
</g>
<!-- extract_known_data -->
<g id="node10" class="node">
<title>extract_known_data</title>
<path fill="none" stroke="black" d="M195.5,-1665C195.5,-1665 28.5,-1665 28.5,-1665 22.5,-1665 16.5,-1659 16.5,-1653 16.5,-1653 16.5,-1639 16.5,-1639 16.5,-1633 22.5,-1627 28.5,-1627 28.5,-1627 195.5,-1627 195.5,-1627 201.5,-1627 207.5,-1633 207.5,-1639 207.5,-1639 207.5,-1653 207.5,-1653 207.5,-1659 201.5,-1665 195.5,-1665"/>
<text text-anchor="middle" x="112" y="-1649.8" font-family="Times,serif" font-size="14.00">Extract Data</text>
<text text-anchor="middle" x="112" y="-1634.8" font-family="Times,serif" font-size="14.00">(Full HTML or by XPath)</text>
</g>
<!-- validate_stored_xpath&#45;&gt;extract_known_data -->
<g id="edge10" class="edge">
<title>validate_stored_xpath&#45;&gt;extract_known_data</title>
<path fill="none" stroke="black" d="M198.71,-1719.5C180.69,-1704.43 159,-1686.3 141.83,-1671.94"/>
<polygon fill="black" stroke="black" points="143.71,-1668.95 133.79,-1665.22 139.22,-1674.32 143.71,-1668.95"/>
<text text-anchor="middle" x="191.5" y="-1686" font-family="Times,serif" font-size="10.00">Yes (Valid)</text>
</g>
<!-- increment_failure_count -->
<g id="node12" class="node">
<title>increment_failure_count</title>
<path fill="none" stroke="black" d="M406,-1664C406,-1664 238,-1664 238,-1664 232,-1664 226,-1658 226,-1652 226,-1652 226,-1640 226,-1640 226,-1634 232,-1628 238,-1628 238,-1628 406,-1628 406,-1628 412,-1628 418,-1634 418,-1640 418,-1640 418,-1652 418,-1652 418,-1658 412,-1664 406,-1664"/>
<text text-anchor="middle" x="322" y="-1642.3" font-family="Times,serif" font-size="14.00">Increment Failure Count</text>
</g>
<!-- validate_stored_xpath&#45;&gt;increment_failure_count -->
<g id="edge13" class="edge">
<title>validate_stored_xpath&#45;&gt;increment_failure_count</title>
<path fill="none" stroke="black" d="M260.88,-1717.84C273.64,-1703.05 288.68,-1685.62 300.64,-1671.76"/>
<polygon fill="black" stroke="black" points="303.41,-1673.91 307.29,-1664.05 298.11,-1669.33 303.41,-1673.91"/>
<text text-anchor="middle" x="318.5" y="-1686" font-family="Times,serif" font-size="10.00">No (Invalid)</text>
</g>
<!-- update_known_site_stats -->
<g id="node11" class="node">
<title>update_known_site_stats</title>
<path fill="none" stroke="black" d="M314,-1529C314,-1529 120,-1529 120,-1529 114,-1529 108,-1523 108,-1517 108,-1517 108,-1503 108,-1503 108,-1497 114,-1491 120,-1491 120,-1491 314,-1491 314,-1491 320,-1491 326,-1497 326,-1503 326,-1503 326,-1517 326,-1517 326,-1523 320,-1529 314,-1529"/>
<text text-anchor="middle" x="217" y="-1513.8" font-family="Times,serif" font-size="14.00">Update Success Stats</text>
<text text-anchor="middle" x="217" y="-1498.8" font-family="Times,serif" font-size="14.00">(Timestamp, Reset Failures)</text>
</g>
<!-- extract_known_data&#45;&gt;update_known_site_stats -->
<g id="edge11" class="edge">
<title>extract_known_data&#45;&gt;update_known_site_stats</title>
<path fill="none" stroke="black" d="M126.16,-1626.93C144.24,-1603.85 175.67,-1563.75 196.4,-1537.29"/>
<polygon fill="black" stroke="black" points="199.32,-1539.24 202.73,-1529.21 193.81,-1534.93 199.32,-1539.24"/>
</g>
<!-- return_data -->
<g id="node36" class="node">
<title>return_data</title>
<ellipse fill="none" stroke="black" cx="316" cy="-18" rx="161.37" ry="18"/>
<text text-anchor="middle" x="316" y="-14.3" font-family="Times,serif" font-size="14.00">Return Extracted Data &amp; Status</text>
</g>
<!-- update_known_site_stats&#45;&gt;return_data -->
<g id="edge12" class="edge">
<title>update_known_site_stats&#45;&gt;return_data</title>
<path fill="none" stroke="black" d="M262.03,-1490.99C283.26,-1479.25 304,-1461.51 304,-1437 304,-1437 304,-1437 304,-91 304,-76 306.57,-59.48 309.32,-46.05"/>
<polygon fill="black" stroke="black" points="312.8,-46.55 311.53,-36.03 305.96,-45.05 312.8,-46.55"/>
</g>
<!-- increment_failure_count&#45;&gt;probe_curl -->
<g id="edge14" class="edge">
<title>increment_failure_count&#45;&gt;probe_curl</title>
<path fill="none" stroke="black" d="M317.18,-1627.65C315.56,-1617.7 315.7,-1605.7 323,-1598 331.2,-1589.35 418.68,-1593.74 430,-1590 466.41,-1577.97 502.9,-1553.08 526.97,-1534.43"/>
<polygon fill="black" stroke="black" points="529.27,-1537.08 534.94,-1528.13 524.93,-1531.58 529.27,-1537.08"/>
<text text-anchor="middle" x="377.5" y="-1601" font-family="Times,serif" font-size="10.00">Trigger Re&#45;Discovery</text>
</g>
<!-- curl_ok -->
<g id="node14" class="node">
<title>curl_ok</title>
<path fill="none" stroke="black" d="M664.28,-1451.42C664.28,-1451.42 606.11,-1438.58 606.11,-1438.58 600.25,-1437.29 600.25,-1434.71 606.11,-1433.42 606.11,-1433.42 664.28,-1420.58 664.28,-1420.58 670.14,-1419.29 681.86,-1419.29 687.72,-1420.58 687.72,-1420.58 745.89,-1433.42 745.89,-1433.42 751.75,-1434.71 751.75,-1437.29 745.89,-1438.58 745.89,-1438.58 687.72,-1451.42 687.72,-1451.42 681.86,-1452.71 670.14,-1452.71 664.28,-1451.42"/>
<text text-anchor="middle" x="676" y="-1432.3" font-family="Times,serif" font-size="14.00">cURL OK?</text>
</g>
<!-- probe_curl&#45;&gt;curl_ok -->
<g id="edge17" class="edge">
<title>probe_curl&#45;&gt;curl_ok</title>
<path fill="none" stroke="black" d="M583.68,-1491.94C602.62,-1480.66 627.38,-1465.93 646.49,-1454.56"/>
<polygon fill="black" stroke="black" points="648.3,-1457.56 655.1,-1449.43 644.72,-1451.54 648.3,-1457.56"/>
</g>
<!-- probe_basic_puppeteer -->
<g id="node15" class="node">
<title>probe_basic_puppeteer</title>
<path fill="none" stroke="black" d="M762.5,-1362.5C762.5,-1362.5 589.5,-1362.5 589.5,-1362.5 583.5,-1362.5 577.5,-1356.5 577.5,-1350.5 577.5,-1350.5 577.5,-1338.5 577.5,-1338.5 577.5,-1332.5 583.5,-1326.5 589.5,-1326.5 589.5,-1326.5 762.5,-1326.5 762.5,-1326.5 768.5,-1326.5 774.5,-1332.5 774.5,-1338.5 774.5,-1338.5 774.5,-1350.5 774.5,-1350.5 774.5,-1356.5 768.5,-1362.5 762.5,-1362.5"/>
<text text-anchor="middle" x="676" y="-1340.8" font-family="Times,serif" font-size="14.00">Attempt Basic Puppeteer</text>
</g>
<!-- curl_ok&#45;&gt;probe_basic_puppeteer -->
<g id="edge18" class="edge">
<title>curl_ok&#45;&gt;probe_basic_puppeteer</title>
<path fill="none" stroke="black" d="M671.49,-1418.75C670.07,-1412.89 668.7,-1406.19 668,-1400 666.99,-1391.08 667.8,-1381.38 669.23,-1372.66"/>
<polygon fill="black" stroke="black" points="672.7,-1373.13 671.19,-1362.64 665.83,-1371.78 672.7,-1373.13"/>
<text text-anchor="middle" x="677" y="-1392" font-family="Times,serif" font-size="10.00">Yes</text>
</g>
<!-- advanced_puppeteer_setup -->
<g id="node20" class="node">
<title>advanced_puppeteer_setup</title>
<path fill="none" stroke="black" d="M1142,-1371C1142,-1371 930,-1371 930,-1371 924,-1371 918,-1365 918,-1359 918,-1359 918,-1330 918,-1330 918,-1324 924,-1318 930,-1318 930,-1318 1142,-1318 1142,-1318 1148,-1318 1154,-1324 1154,-1330 1154,-1330 1154,-1359 1154,-1359 1154,-1365 1148,-1371 1142,-1371"/>
<text text-anchor="middle" x="1036" y="-1355.8" font-family="Times,serif" font-size="14.00">Advanced Puppeteer Setup</text>
<text text-anchor="middle" x="1036" y="-1340.8" font-family="Times,serif" font-size="14.00">(Stealth, Plugins, Interactions)</text>
<text text-anchor="middle" x="1036" y="-1325.8" font-family="Times,serif" font-size="14.00">Get HTML for Analysis</text>
</g>
<!-- curl_ok&#45;&gt;advanced_puppeteer_setup -->
<g id="edge25" class="edge">
<title>curl_ok&#45;&gt;advanced_puppeteer_setup</title>
<path fill="none" stroke="black" d="M712.5,-1425.93C761.5,-1413.74 850.75,-1391.55 923.12,-1373.56"/>
<polygon fill="black" stroke="black" points="924.35,-1376.86 933.21,-1371.05 922.66,-1370.07 924.35,-1376.86"/>
<text text-anchor="middle" x="927" y="-1392" font-family="Times,serif" font-size="10.00">No (cURL Failed or Blocker)</text>
</g>
<!-- compare_doms -->
<g id="node16" class="node">
<title>compare_doms</title>
<path fill="none" stroke="black" d="M798.5,-1281C798.5,-1281 553.5,-1281 553.5,-1281 547.5,-1281 541.5,-1275 541.5,-1269 541.5,-1269 541.5,-1257 541.5,-1257 541.5,-1251 547.5,-1245 553.5,-1245 553.5,-1245 798.5,-1245 798.5,-1245 804.5,-1245 810.5,-1251 810.5,-1257 810.5,-1257 810.5,-1269 810.5,-1269 810.5,-1275 804.5,-1281 798.5,-1281"/>
<text text-anchor="middle" x="676" y="-1259.3" font-family="Times,serif" font-size="14.00">Compare cURL &amp; Puppeteer DOMs</text>
</g>
<!-- probe_basic_puppeteer&#45;&gt;compare_doms -->
<g id="edge19" class="edge">
<title>probe_basic_puppeteer&#45;&gt;compare_doms</title>
<path fill="none" stroke="black" d="M676,-1326.25C676,-1316.04 676,-1302.88 676,-1291.29"/>
<polygon fill="black" stroke="black" points="679.5,-1291.22 676,-1281.22 672.5,-1291.22 679.5,-1291.22"/>
</g>
<!-- doms_similar -->
<g id="node17" class="node">
<title>doms_similar</title>
<path fill="none" stroke="black" d="M664.05,-1206.96C664.05,-1206.96 481.33,-1191.04 481.33,-1191.04 475.36,-1190.52 475.36,-1189.48 481.33,-1188.96 481.33,-1188.96 664.05,-1173.04 664.05,-1173.04 670.02,-1172.52 681.98,-1172.52 687.95,-1173.04 687.95,-1173.04 870.67,-1188.96 870.67,-1188.96 876.64,-1189.48 876.64,-1190.52 870.67,-1191.04 870.67,-1191.04 687.95,-1206.96 687.95,-1206.96 681.98,-1207.48 670.02,-1207.48 664.05,-1206.96"/>
<text text-anchor="middle" x="676" y="-1186.3" font-family="Times,serif" font-size="14.00">DOMs Similar &amp; cURL Valid?</text>
</g>
<!-- compare_doms&#45;&gt;doms_similar -->
<g id="edge20" class="edge">
<title>compare_doms&#45;&gt;doms_similar</title>
<path fill="none" stroke="black" d="M676,-1244.81C676,-1236.79 676,-1227.05 676,-1218.07"/>
<polygon fill="black" stroke="black" points="679.5,-1218.03 676,-1208.03 672.5,-1218.03 679.5,-1218.03"/>
</g>
<!-- set_method_curl -->
<g id="node18" class="node">
<title>set_method_curl</title>
<path fill="none" stroke="black" d="M629.5,-1125C629.5,-1125 462.5,-1125 462.5,-1125 456.5,-1125 450.5,-1119 450.5,-1113 450.5,-1113 450.5,-1099 450.5,-1099 450.5,-1093 456.5,-1087 462.5,-1087 462.5,-1087 629.5,-1087 629.5,-1087 635.5,-1087 641.5,-1093 641.5,-1099 641.5,-1099 641.5,-1113 641.5,-1113 641.5,-1119 635.5,-1125 629.5,-1125"/>
<text text-anchor="middle" x="546" y="-1109.8" font-family="Times,serif" font-size="14.00">Tentative Method: cURL</text>
<text text-anchor="middle" x="546" y="-1094.8" font-family="Times,serif" font-size="14.00">HTML: cURL Output</text>
</g>
<!-- doms_similar&#45;&gt;set_method_curl -->
<g id="edge21" class="edge">
<title>doms_similar&#45;&gt;set_method_curl</title>
<path fill="none" stroke="black" d="M652.16,-1173.96C632.87,-1161.8 605.38,-1144.45 583.2,-1130.47"/>
<polygon fill="black" stroke="black" points="585.01,-1127.47 574.68,-1125.09 581.28,-1133.39 585.01,-1127.47"/>
<text text-anchor="middle" x="627" y="-1146" font-family="Times,serif" font-size="10.00">Yes</text>
</g>
<!-- set_method_puppeteer_basic -->
<g id="node19" class="node">
<title>set_method_puppeteer_basic</title>
<path fill="none" stroke="black" d="M890,-1125C890,-1125 672,-1125 672,-1125 666,-1125 660,-1119 660,-1113 660,-1113 660,-1099 660,-1099 660,-1093 666,-1087 672,-1087 672,-1087 890,-1087 890,-1087 896,-1087 902,-1093 902,-1099 902,-1099 902,-1113 902,-1113 902,-1119 896,-1125 890,-1125"/>
<text text-anchor="middle" x="781" y="-1109.8" font-family="Times,serif" font-size="14.00">Tentative Method: Puppeteer</text>
<text text-anchor="middle" x="781" y="-1094.8" font-family="Times,serif" font-size="14.00">HTML: Basic Puppeteer Output</text>
</g>
<!-- doms_similar&#45;&gt;set_method_puppeteer_basic -->
<g id="edge23" class="edge">
<title>doms_similar&#45;&gt;set_method_puppeteer_basic</title>
<path fill="none" stroke="black" d="M686.21,-1172.67C692.74,-1163.16 701.86,-1151.43 712,-1143 717.64,-1138.31 724,-1133.99 730.51,-1130.09"/>
<polygon fill="black" stroke="black" points="732.45,-1133.01 739.43,-1125.04 729,-1126.92 732.45,-1133.01"/>
<text text-anchor="middle" x="720" y="-1146" font-family="Times,serif" font-size="10.00">No</text>
</g>
<!-- extract_snippets -->
<g id="node21" class="node">
<title>extract_snippets</title>
<path fill="none" stroke="black" d="M814.5,-1029C814.5,-1029 665.5,-1029 665.5,-1029 659.5,-1029 653.5,-1023 653.5,-1017 653.5,-1017 653.5,-1005 653.5,-1005 653.5,-999 659.5,-993 665.5,-993 665.5,-993 814.5,-993 814.5,-993 820.5,-993 826.5,-999 826.5,-1005 826.5,-1005 826.5,-1017 826.5,-1017 826.5,-1023 820.5,-1029 814.5,-1029"/>
<text text-anchor="middle" x="740" y="-1007.3" font-family="Times,serif" font-size="14.00">Extract Text Snippets</text>
</g>
<!-- set_method_curl&#45;&gt;extract_snippets -->
<g id="edge22" class="edge">
<title>set_method_curl&#45;&gt;extract_snippets</title>
<path fill="none" stroke="black" d="M583.87,-1086.85C615.82,-1071.53 661.61,-1049.58 695.35,-1033.41"/>
<polygon fill="black" stroke="black" points="697.01,-1036.49 704.52,-1029.01 693.99,-1030.18 697.01,-1036.49"/>
</g>
<!-- set_method_puppeteer_basic&#45;&gt;extract_snippets -->
<g id="edge24" class="edge">
<title>set_method_puppeteer_basic&#45;&gt;extract_snippets</title>
<path fill="none" stroke="black" d="M772.9,-1086.63C766.85,-1072.9 758.49,-1053.95 751.72,-1038.58"/>
<polygon fill="black" stroke="black" points="754.77,-1036.82 747.53,-1029.08 748.36,-1039.64 754.77,-1036.82"/>
</g>
<!-- advanced_puppeteer_setup&#45;&gt;extract_snippets -->
<g id="edge26" class="edge">
<title>advanced_puppeteer_setup&#45;&gt;extract_snippets</title>
<path fill="none" stroke="black" d="M1004.62,-1317.74C990.96,-1303.56 978,-1284.67 978,-1264 978,-1264 978,-1264 978,-1105 978,-1073.04 902.59,-1047.59 836.66,-1031.45"/>
<polygon fill="black" stroke="black" points="837.14,-1027.97 826.6,-1029.04 835.51,-1034.77 837.14,-1027.97"/>
</g>
<!-- llm_loop_start -->
<g id="node22" class="node">
<title>llm_loop_start</title>
<polygon fill="none" stroke="black" points="736.5,-950 575.5,-950 575.5,-924 736.5,-924 748.5,-937 736.5,-950"/>
<text text-anchor="middle" x="662" y="-940.8" font-family="Times,serif" font-size="14.00">LLM Retry Loop Start</text>
<text text-anchor="middle" x="662" y="-925.8" font-family="Times,serif" font-size="14.00">(Max Retries)</text>
</g>
<!-- extract_snippets&#45;&gt;llm_loop_start -->
<g id="edge27" class="edge">
<title>extract_snippets&#45;&gt;llm_loop_start</title>
<path fill="none" stroke="black" d="M721.52,-992.94C711.87,-984.04 699.89,-972.98 689.21,-963.12"/>
<polygon fill="black" stroke="black" points="691.44,-960.41 681.72,-956.2 686.69,-965.55 691.44,-960.41"/>
</g>
<!-- llm_call -->
<g id="node23" class="node">
<title>llm_call</title>
<path fill="none" stroke="black" d="M778,-881C778,-881 546,-881 546,-881 540,-881 534,-875 534,-869 534,-869 534,-855 534,-855 534,-849 540,-843 546,-843 546,-843 778,-843 778,-843 784,-843 790,-849 790,-855 790,-855 790,-869 790,-869 790,-875 784,-881 778,-881"/>
<text text-anchor="middle" x="662" y="-865.8" font-family="Times,serif" font-size="14.00">Call LLM for Candidate XPaths</text>
<text text-anchor="middle" x="662" y="-850.8" font-family="Times,serif" font-size="14.00">(with HTML, Snippets, Feedback)</text>
</g>
<!-- llm_loop_start&#45;&gt;llm_call -->
<g id="edge28" class="edge">
<title>llm_loop_start&#45;&gt;llm_call</title>
<path fill="none" stroke="black" d="M662,-917.96C662,-909.88 662,-900.18 662,-891.18"/>
<polygon fill="black" stroke="black" points="665.5,-891.09 662,-881.09 658.5,-891.09 665.5,-891.09"/>
</g>
<!-- validate_score_xpaths -->
<g id="node24" class="node">
<title>validate_score_xpaths</title>
<path fill="none" stroke="black" d="M813,-806C813,-806 511,-806 511,-806 505,-806 499,-800 499,-794 499,-794 499,-780 499,-780 499,-774 505,-768 511,-768 511,-768 813,-768 813,-768 819,-768 825,-774 825,-780 825,-780 825,-794 825,-794 825,-800 819,-806 813,-806"/>
<text text-anchor="middle" x="662" y="-790.8" font-family="Times,serif" font-size="14.00">Validate &amp; Score LLM XPaths</text>
<text text-anchor="middle" x="662" y="-775.8" font-family="Times,serif" font-size="14.00">(Heuristics: paragraphs, semantic, density)</text>
</g>
<!-- llm_call&#45;&gt;validate_score_xpaths -->
<g id="edge29" class="edge">
<title>llm_call&#45;&gt;validate_score_xpaths</title>
<path fill="none" stroke="black" d="M662,-842.96C662,-834.88 662,-825.18 662,-816.18"/>
<polygon fill="black" stroke="black" points="665.5,-816.09 662,-806.09 658.5,-816.09 665.5,-816.09"/>
</g>
<!-- good_xpath_found_llm -->
<g id="node25" class="node">
<title>good_xpath_found_llm</title>
<path fill="none" stroke="black" d="M650.09,-719.5C650.09,-719.5 530.63,-704.5 530.63,-704.5 524.68,-703.75 524.68,-702.25 530.63,-701.5 530.63,-701.5 650.09,-686.5 650.09,-686.5 656.05,-685.75 667.95,-685.75 673.91,-686.5 673.91,-686.5 793.37,-701.5 793.37,-701.5 799.32,-702.25 799.32,-703.75 793.37,-704.5 793.37,-704.5 673.91,-719.5 673.91,-719.5 667.95,-720.25 656.05,-720.25 650.09,-719.5"/>
<text text-anchor="middle" x="662" y="-699.3" font-family="Times,serif" font-size="14.00">Good XPath Found?</text>
</g>
<!-- validate_score_xpaths&#45;&gt;good_xpath_found_llm -->
<g id="edge30" class="edge">
<title>validate_score_xpaths&#45;&gt;good_xpath_found_llm</title>
<path fill="none" stroke="black" d="M662,-767.8C662,-757 662,-743.1 662,-731.04"/>
<polygon fill="black" stroke="black" points="665.5,-731.03 662,-721.03 658.5,-731.03 665.5,-731.03"/>
</g>
<!-- collect_llm_feedback -->
<g id="node26" class="node">
<title>collect_llm_feedback</title>
<path fill="none" stroke="black" d="M658,-638C658,-638 482,-638 482,-638 476,-638 470,-632 470,-626 470,-626 470,-612 470,-612 470,-606 476,-600 482,-600 482,-600 658,-600 658,-600 664,-600 670,-606 670,-612 670,-612 670,-626 670,-626 670,-632 664,-638 658,-638"/>
<text text-anchor="middle" x="570" y="-622.8" font-family="Times,serif" font-size="14.00">Collect Feedback for LLM</text>
<text text-anchor="middle" x="570" y="-607.8" font-family="Times,serif" font-size="14.00">(Why XPaths Failed)</text>
</g>
<!-- good_xpath_found_llm&#45;&gt;collect_llm_feedback -->
<g id="edge33" class="edge">
<title>good_xpath_found_llm&#45;&gt;collect_llm_feedback</title>
<path fill="none" stroke="black" d="M645.13,-686.96C631.96,-675.23 613.39,-658.68 598.01,-644.96"/>
<polygon fill="black" stroke="black" points="600.09,-642.13 590.3,-638.09 595.44,-647.36 600.09,-642.13"/>
<text text-anchor="middle" x="661.5" y="-659" font-family="Times,serif" font-size="10.00">No, Retries Left</text>
</g>
<!-- best_xpath_selected -->
<g id="node28" class="node">
<title>best_xpath_selected</title>
<path fill="none" stroke="black" d="M837.5,-637C837.5,-637 700.5,-637 700.5,-637 694.5,-637 688.5,-631 688.5,-625 688.5,-625 688.5,-613 688.5,-613 688.5,-607 694.5,-601 700.5,-601 700.5,-601 837.5,-601 837.5,-601 843.5,-601 849.5,-607 849.5,-613 849.5,-613 849.5,-625 849.5,-625 849.5,-631 843.5,-637 837.5,-637"/>
<text text-anchor="middle" x="769" y="-615.3" font-family="Times,serif" font-size="14.00">Best XPath Selected</text>
</g>
<!-- good_xpath_found_llm&#45;&gt;best_xpath_selected -->
<g id="edge31" class="edge">
<title>good_xpath_found_llm&#45;&gt;best_xpath_selected</title>
<path fill="none" stroke="black" d="M681.13,-687.34C697.08,-675.12 720.1,-657.47 738.58,-643.31"/>
<polygon fill="black" stroke="black" points="740.9,-645.95 746.71,-637.09 736.64,-640.39 740.9,-645.95"/>
<text text-anchor="middle" x="730" y="-659" font-family="Times,serif" font-size="10.00">Yes</text>
</g>
<!-- llm_loop_end -->
<g id="node27" class="node">
<title>llm_loop_end</title>
<polygon fill="none" stroke="black" points="621.5,-556 468.5,-556 468.5,-532 621.5,-532 633.5,-544 621.5,-556"/>
<text text-anchor="middle" x="551" y="-540.3" font-family="Times,serif" font-size="14.00">LLM Retry Loop End</text>
</g>
<!-- collect_llm_feedback&#45;&gt;llm_loop_end -->
<g id="edge34" class="edge">
<title>collect_llm_feedback&#45;&gt;llm_loop_end</title>
<path fill="none" stroke="black" d="M565.3,-599.96C563.13,-591.61 560.51,-581.52 558.1,-572.28"/>
<polygon fill="black" stroke="black" points="561.42,-571.13 555.51,-562.33 554.64,-572.89 561.42,-571.13"/>
</g>
<!-- llm_loop_end&#45;&gt;llm_loop_start -->
<g id="edge35" class="edge">
<title>llm_loop_end&#45;&gt;llm_loop_start</title>
<path fill="none" stroke="black" d="M504.29,-562.08C487.56,-570.73 470.49,-583.07 461,-600 415.77,-680.64 462.34,-717.78 490,-806 501,-841.1 498.29,-855.71 525,-881 540.2,-895.38 559.63,-906.19 579.06,-914.23"/>
<polygon fill="black" stroke="black" points="577.99,-917.57 588.58,-917.96 580.55,-911.05 577.99,-917.57"/>
<text text-anchor="middle" x="482" y="-742" font-family="Times,serif" font-size="10.00">Retry</text>
</g>
<!-- no_xpath_found -->
<g id="node29" class="node">
<title>no_xpath_found</title>
<path fill="none" stroke="black" d="M625.5,-477C625.5,-477 476.5,-477 476.5,-477 470.5,-477 464.5,-471 464.5,-465 464.5,-465 464.5,-453 464.5,-453 464.5,-447 470.5,-441 476.5,-441 476.5,-441 625.5,-441 625.5,-441 631.5,-441 637.5,-447 637.5,-453 637.5,-453 637.5,-465 637.5,-465 637.5,-471 631.5,-477 625.5,-477"/>
<text text-anchor="middle" x="551" y="-455.3" font-family="Times,serif" font-size="14.00">No Good XPath Found</text>
</g>
<!-- llm_loop_end&#45;&gt;no_xpath_found -->
<g id="edge36" class="edge">
<title>llm_loop_end&#45;&gt;no_xpath_found</title>
<path fill="none" stroke="black" d="M551,-525.8C551,-514.67 551,-499.94 551,-487.24"/>
<polygon fill="black" stroke="black" points="554.5,-487.18 551,-477.18 547.5,-487.18 554.5,-487.18"/>
<text text-anchor="middle" x="605.5" y="-499" font-family="Times,serif" font-size="10.00">Max Retries Reached</text>
</g>
<!-- determine_final_method -->
<g id="node30" class="node">
<title>determine_final_method</title>
<path fill="none" stroke="black" d="M1171.5,-563C1171.5,-563 878.5,-563 878.5,-563 872.5,-563 866.5,-557 866.5,-551 866.5,-551 866.5,-537 866.5,-537 866.5,-531 872.5,-525 878.5,-525 878.5,-525 1171.5,-525 1171.5,-525 1177.5,-525 1183.5,-531 1183.5,-537 1183.5,-537 1183.5,-551 1183.5,-551 1183.5,-557 1177.5,-563 1171.5,-563"/>
<text text-anchor="middle" x="1025" y="-547.8" font-family="Times,serif" font-size="14.00">Determine Final Method &amp; NeedsCaptcha</text>
<text text-anchor="middle" x="1025" y="-532.8" font-family="Times,serif" font-size="14.00">(cURL if viable, else Puppeteer)</text>
</g>
<!-- best_xpath_selected&#45;&gt;determine_final_method -->
<g id="edge32" class="edge">
<title>best_xpath_selected&#45;&gt;determine_final_method</title>
<path fill="none" stroke="black" d="M828.7,-600.98C865.47,-590.49 912.89,-576.97 951.9,-565.84"/>
<polygon fill="black" stroke="black" points="952.97,-569.18 961.63,-563.07 951.05,-562.45 952.97,-569.18"/>
</g>
<!-- save_debug_info -->
<g id="node38" class="node">
<title>save_debug_info</title>
<path fill="none" stroke="black" d="M616.5,-363C616.5,-363 485.5,-363 485.5,-363 479.5,-363 473.5,-357 473.5,-351 473.5,-351 473.5,-337 473.5,-337 473.5,-331 479.5,-325 485.5,-325 485.5,-325 616.5,-325 616.5,-325 622.5,-325 628.5,-331 628.5,-337 628.5,-337 628.5,-351 628.5,-351 628.5,-357 622.5,-363 616.5,-363"/>
<text text-anchor="middle" x="551" y="-347.8" font-family="Times,serif" font-size="14.00">Save Debug Info</text>
<text text-anchor="middle" x="551" y="-332.8" font-family="Times,serif" font-size="14.00">(e.g., Failed HTML)</text>
</g>
<!-- no_xpath_found&#45;&gt;save_debug_info -->
<g id="edge37" class="edge">
<title>no_xpath_found&#45;&gt;save_debug_info</title>
<path fill="none" stroke="black" d="M551,-440.84C551,-422.88 551,-394.4 551,-373.14"/>
<polygon fill="black" stroke="black" points="554.5,-373.07 551,-363.07 547.5,-373.07 554.5,-373.07"/>
</g>
<!-- store_new_config -->
<g id="node31" class="node">
<title>store_new_config</title>
<path fill="none" stroke="black" d="M1159.5,-478C1159.5,-478 792.5,-478 792.5,-478 786.5,-478 780.5,-472 780.5,-466 780.5,-466 780.5,-452 780.5,-452 780.5,-446 786.5,-440 792.5,-440 792.5,-440 1159.5,-440 1159.5,-440 1165.5,-440 1171.5,-446 1171.5,-452 1171.5,-452 1171.5,-466 1171.5,-466 1171.5,-472 1165.5,-478 1159.5,-478"/>
<text text-anchor="middle" x="976" y="-462.8" font-family="Times,serif" font-size="14.00">Store New/Updated Config</text>
<text text-anchor="middle" x="976" y="-447.8" font-family="Times,serif" font-size="14.00">(Method, XPath, NeedsCaptcha) in KnownSitesTable</text>
</g>
<!-- determine_final_method&#45;&gt;store_new_config -->
<g id="edge39" class="edge">
<title>determine_final_method&#45;&gt;store_new_config</title>
<path fill="none" stroke="black" d="M1014.37,-524.99C1007.8,-513.86 999.25,-499.38 991.89,-486.91"/>
<polygon fill="black" stroke="black" points="994.88,-485.09 986.78,-478.26 988.85,-488.65 994.88,-485.09"/>
</g>
<!-- unknown_site_captcha_check_execute -->
<g id="node32" class="node">
<title>unknown_site_captcha_check_execute</title>
<path fill="none" stroke="black" d="M929.22,-379.72C929.22,-379.72 756.78,-346.28 756.78,-346.28 750.89,-345.14 750.89,-342.86 756.78,-341.72 756.78,-341.72 929.22,-308.28 929.22,-308.28 935.11,-307.14 946.89,-307.14 952.78,-308.28 952.78,-308.28 1125.22,-341.72 1125.22,-341.72 1131.11,-342.86 1131.11,-345.14 1125.22,-346.28 1125.22,-346.28 952.78,-379.72 952.78,-379.72 946.89,-380.86 935.11,-380.86 929.22,-379.72"/>
<text text-anchor="middle" x="941" y="-347.8" font-family="Times,serif" font-size="14.00">Newly Discovered Config</text>
<text text-anchor="middle" x="941" y="-332.8" font-family="Times,serif" font-size="14.00">Needs CAPTCHA Solver?</text>
</g>
<!-- store_new_config&#45;&gt;unknown_site_captcha_check_execute -->
<g id="edge40" class="edge">
<title>store_new_config&#45;&gt;unknown_site_captcha_check_execute</title>
<path fill="none" stroke="black" d="M970.38,-439.84C966.21,-426.39 960.34,-407.44 954.94,-390.01"/>
<polygon fill="black" stroke="black" points="958.14,-388.5 951.84,-379.98 951.45,-390.57 958.14,-388.5"/>
</g>
<!-- unknown_site_solve_captcha -->
<g id="node33" class="node">
<title>unknown_site_solve_captcha</title>
<path fill="none" stroke="black" d="M991.5,-259C991.5,-259 770.5,-259 770.5,-259 764.5,-259 758.5,-253 758.5,-247 758.5,-247 758.5,-235 758.5,-235 758.5,-229 764.5,-223 770.5,-223 770.5,-223 991.5,-223 991.5,-223 997.5,-223 1003.5,-229 1003.5,-235 1003.5,-235 1003.5,-247 1003.5,-247 1003.5,-253 997.5,-259 991.5,-259"/>
<text text-anchor="middle" x="881" y="-237.3" font-family="Times,serif" font-size="14.00">Integrate with CAPTCHA Solver</text>
</g>
<!-- unknown_site_captcha_check_execute&#45;&gt;unknown_site_solve_captcha -->
<g id="edge41" class="edge">
<title>unknown_site_captcha_check_execute&#45;&gt;unknown_site_solve_captcha</title>
<path fill="none" stroke="black" d="M921.19,-309.65C913.11,-296.06 903.92,-280.58 896.37,-267.87"/>
<polygon fill="black" stroke="black" points="899.31,-265.97 891.19,-259.16 893.29,-269.55 899.31,-265.97"/>
<text text-anchor="middle" x="916" y="-280" font-family="Times,serif" font-size="10.00">Yes</text>
</g>
<!-- execute_final_method -->
<g id="node34" class="node">
<title>execute_final_method</title>
<path fill="none" stroke="black" d="M993,-186C993,-186 843,-186 843,-186 837,-186 831,-180 831,-174 831,-174 831,-160 831,-160 831,-154 837,-148 843,-148 843,-148 993,-148 993,-148 999,-148 1005,-154 1005,-160 1005,-160 1005,-174 1005,-174 1005,-180 999,-186 993,-186"/>
<text text-anchor="middle" x="918" y="-170.8" font-family="Times,serif" font-size="14.00">Execute Final Method</text>
<text text-anchor="middle" x="918" y="-155.8" font-family="Times,serif" font-size="14.00">(cURL/Puppeteer)</text>
</g>
<!-- unknown_site_captcha_check_execute&#45;&gt;execute_final_method -->
<g id="edge43" class="edge">
<title>unknown_site_captcha_check_execute&#45;&gt;execute_final_method</title>
<path fill="none" stroke="black" d="M978.75,-313.09C1004.45,-288.91 1030.84,-253.94 1013,-223 1005.27,-209.59 992.88,-199.16 979.57,-191.16"/>
<polygon fill="black" stroke="black" points="981.17,-188.04 970.73,-186.24 977.77,-194.16 981.17,-188.04"/>
<text text-anchor="middle" x="1026" y="-238.5" font-family="Times,serif" font-size="10.00">No</text>
</g>
<!-- unknown_site_solve_captcha&#45;&gt;execute_final_method -->
<g id="edge42" class="edge">
<title>unknown_site_solve_captcha&#45;&gt;execute_final_method</title>
<path fill="none" stroke="black" d="M889.77,-222.94C894.03,-214.64 899.26,-204.47 904.05,-195.14"/>
<polygon fill="black" stroke="black" points="907.19,-196.69 908.65,-186.2 900.96,-193.49 907.19,-196.69"/>
</g>
<!-- extract_data_final -->
<g id="node35" class="node">
<title>extract_data_final</title>
<path fill="none" stroke="black" d="M1079.5,-111C1079.5,-111 756.5,-111 756.5,-111 750.5,-111 744.5,-105 744.5,-99 744.5,-99 744.5,-85 744.5,-85 744.5,-79 750.5,-73 756.5,-73 756.5,-73 1079.5,-73 1079.5,-73 1085.5,-73 1091.5,-79 1091.5,-85 1091.5,-85 1091.5,-99 1091.5,-99 1091.5,-105 1085.5,-111 1079.5,-111"/>
<text text-anchor="middle" x="918" y="-95.8" font-family="Times,serif" font-size="14.00">Extract Data</text>
<text text-anchor="middle" x="918" y="-80.8" font-family="Times,serif" font-size="14.00">(Full HTML or by Discovered/Validated XPath)</text>
</g>
<!-- execute_final_method&#45;&gt;extract_data_final -->
<g id="edge44" class="edge">
<title>execute_final_method&#45;&gt;extract_data_final</title>
<path fill="none" stroke="black" d="M918,-147.96C918,-139.88 918,-130.18 918,-121.18"/>
<polygon fill="black" stroke="black" points="921.5,-121.09 918,-111.09 914.5,-121.09 921.5,-121.09"/>
</g>
<!-- extract_data_final&#45;&gt;return_data -->
<g id="edge45" class="edge">
<title>extract_data_final&#45;&gt;return_data</title>
<path fill="none" stroke="black" d="M767.26,-72.97C663.32,-60.54 527.23,-44.26 431.79,-32.85"/>
<polygon fill="black" stroke="black" points="432.15,-29.37 421.81,-31.65 431.32,-36.32 432.15,-29.37"/>
</g>
<!-- return_failure -->
<g id="node37" class="node">
<title>return_failure</title>
<ellipse fill="none" stroke="black" cx="551" cy="-241" rx="131.08" ry="18"/>
<text text-anchor="middle" x="551" y="-237.3" font-family="Times,serif" font-size="14.00">Return Failure &amp; Analysis</text>
</g>
<!-- save_debug_info&#45;&gt;return_failure -->
<g id="edge38" class="edge">
<title>save_debug_info&#45;&gt;return_failure</title>
<path fill="none" stroke="black" d="M551,-324.94C551,-309.53 551,-287.13 551,-269.49"/>
<polygon fill="black" stroke="black" points="554.5,-269.23 551,-259.23 547.5,-269.23 554.5,-269.23"/>
</g>
</g>
</svg>
